{
.appVersion = "3436";
.formatVersion = 3;
axes = (
{
name = Weight;
tag = wght;
}
);
date = "2025-10-19 19:33:20 +0000";
familyName = Juncture;
fontMaster = (
{
id = "EC9F2154-F4A7-4F5F-94F7-5D2EB750EE8F";
metricValues = (
{
pos = 680;
},
{
over = 12;
pos = 650;
},
{
over = 12;
pos = 450;
},
{
over = -12;
},
{
over = -12;
pos = -200;
},
{
}
);
name = Regular;
stemValues = (
104,
40
);
}
);
glyphs = (
{
glyphname = A;
lastChange = "2025-11-04 11:29:09 +0000";
layers = (
{
layerId = "EC9F2154-F4A7-4F5F-94F7-5D2EB750EE8F";
shapes = (
{
closed = 1;
nodes = (
(424,224,l),
(150,224,l),
(151,156,l),
(425,156,l)
);
},
{
closed = 1;
nodes = (
(108,0,l),
(301,586,l),
(273,586,l),
(464,0,l),
(545,0,l),
(328,650,l),
(249,650,l),
(32,0,l)
);
}
);
width = 576;
}
);
metricRight = "=|";
unicode = 65;
},
{
glyphname = B;
lastChange = "2025-11-04 11:29:09 +0000";
layers = (
{
layerId = "EC9F2154-F4A7-4F5F-94F7-5D2EB750EE8F";
shapes = (
{
closed = 1;
nodes = (
(278,650,l),
(70,650,l),
(70,0,l),
(302,0,l),
(302,68,l),
(146,68,l),
(146,300,l),
(297,300,l),
(297,368,l),
(146,368,l),
(146,583,l),
(278,583,l)
);
},
{
closed = 1;
nodes = (
(379,467,l),
(379,416,o),
(349,368,o),
(262,368,c),
(262,311,l),
(394,311,o),
(455,367,o),
(455,461,c),
(455,488,l),
(455,574,o),
(396,650,o),
(278,650,c),
(278,583,l),
(356,583,o),
(379,536,o),
(379,484,c)
);
},
{
closed = 1;
nodes = (
(414,178,l),
(414,131,o),
(389,68,o),
(301,68,c),
(301,0,l),
(437,0,o),
(490,70,o),
(490,174,c),
(490,190,l),
(490,315,o),
(383,357,o),
(286,357,c),
(286,300,l),
(367,300,o),
(414,259,o),
(414,189,c)
);
}
);
width = 549;
}
);
metricLeft = "=H";
metricRight = "=O";
unicode = 66;
},
{
glyphname = C;
lastChange = "2025-11-04 11:29:09 +0000";
layers = (
{
layerId = "EC9F2154-F4A7-4F5F-94F7-5D2EB750EE8F";
shapes = (
{
closed = 1;
nodes = (
(411,-12,o),
(534,45,o),
(547,196,c),
(471,196,l),
(460,92,o),
(384,52,o),
(305,53,cs),
(225,54,o),
(135,92,o),
(135,243,c),
(135,403,l),
(135,558,o),
(225,596,o),
(305,597,cs),
(385,598,o),
(457,556,o),
(472,449,c),
(548,449,l),
(533,605,o),
(409,662,o),
(305,662,cs),
(202,662,o),
(59,607,o),
(59,403,c),
(59,243,l),
(59,43,o),
(202,-12,o),
(305,-12,cs)
);
}
);
width = 597;
}
);
metricLeft = O;
metricRight = "=O-10";
unicode = 67;
},
{
glyphname = D;
lastChange = "2025-11-04 11:29:09 +0000";
layers = (
{
layerId = "EC9F2154-F4A7-4F5F-94F7-5D2EB750EE8F";
shapes = (
{
closed = 1;
nodes = (
(146,584,l),
(262,584,ls),
(348,583,o),
(437,544,o),
(437,391,cs),
(437,255,ls),
(437,105,o),
(346,66,o),
(262,66,cs),
(146,65,l)
);
},
{
closed = 1;
nodes = (
(267,0,ls),
(370,0,o),
(513,50,o),
(513,255,cs),
(513,391,ls),
(513,600,o),
(371,649,o),
(267,650,cs),
(70,650,l),
(70,0,l)
);
}
);
width = 572;
}
);
metricLeft = "=H";
metricRight = "=O";
unicode = 68;
},
{
glyphname = E;
lastChange = "2025-11-04 11:29:09 +0000";
layers = (
{
layerId = "EC9F2154-F4A7-4F5F-94F7-5D2EB750EE8F";
shapes = (
{
closed = 1;
nodes = (
(434,0,l),
(434,66,l),
(146,66,l),
(146,305,l),
(361,305,l),
(361,371,l),
(146,371,l),
(146,584,l),
(434,584,l),
(434,650,l),
(70,650,l),
(70,0,l)
);
}
);
width = 478;
}
);
metricLeft = "=H";
unicode = 69;
},
{
glyphname = F;
lastChange = "2025-11-04 11:29:09 +0000";
layers = (
{
layerId = "EC9F2154-F4A7-4F5F-94F7-5D2EB750EE8F";
shapes = (
{
closed = 1;
nodes = (
(146,0,l),
(146,264,l),
(361,264,l),
(361,330,l),
(146,330,l),
(146,584,l),
(434,584,l),
(434,650,l),
(70,650,l),
(70,0,l)
);
}
);
width = 475;
}
);
metricLeft = "=H";
unicode = 70;
},
{
glyphname = G;
lastChange = "2025-11-04 11:29:09 +0000";
layers = (
{
layerId = "EC9F2154-F4A7-4F5F-94F7-5D2EB750EE8F";
shapes = (
{
closed = 1;
nodes = (
(547,-1,l),
(547,326,l),
(351,326,l),
(351,260,l),
(471,260,l),
(471,54,l),
(476,45,l),
(482,-1,l)
);
},
{
closed = 1;
nodes = (
(411,-12,o),
(527,43,o),
(543,196,c),
(471,196,l),
(465,105,o),
(395,52,o),
(305,53,cs),
(225,54,o),
(135,92,o),
(135,243,c),
(135,403,l),
(135,558,o),
(225,596,o),
(305,597,cs),
(385,598,o),
(457,556,o),
(472,449,c),
(548,449,l),
(533,605,o),
(409,662,o),
(305,662,cs),
(202,662,o),
(59,607,o),
(59,403,c),
(59,243,l),
(59,43,o),
(202,-12,o),
(305,-12,cs)
);
}
);
width = 608;
}
);
metricLeft = "=O";
metricRight = "=H-10";
unicode = 71;
},
{
glyphname = H;
lastChange = "2025-11-04 11:29:09 +0000";
layers = (
{
anchors = (
{
name = bottom;
pos = (316,0);
},
{
name = center;
pos = (316,488);
},
{
name = top;
pos = (316,650);
},
{
name = topleft;
pos = (20,650);
}
);
layerId = "EC9F2154-F4A7-4F5F-94F7-5D2EB750EE8F";
shapes = (
{
closed = 1;
nodes = (
(70,2,l),
(146,2,l),
(146,301,l),
(447,301,l),
(447,2,l),
(523,2,l),
(523,650,l),
(447,650,l),
(447,366,l),
(146,366,l),
(146,650,l),
(70,650,l)
);
}
);
width = 593;
}
);
metricRight = "=|";
unicode = 72;
},
{
glyphname = I;
lastChange = "2025-11-04 11:29:09 +0000";
layers = (
{
anchors = (
{
name = bottom;
pos = (109,0);
},
{
name = ogonek;
pos = (201,10);
},
{
name = top;
pos = (109,650);
},
{
name = topleft;
pos = (14,650);
}
);
layerId = "EC9F2154-F4A7-4F5F-94F7-5D2EB750EE8F";
shapes = (
{
closed = 1;
nodes = (
(70,650,l),
(70,0,l),
(146,0,l),
(146,650,l)
);
}
);
width = 216;
}
);
metricLeft = H;
metricRight = H;
unicode = 73;
},
{
glyphname = J;
lastChange = "2025-11-04 11:29:09 +0000";
layers = (
{
anchors = (
{
name = bottom;
pos = (205,0);
},
{
name = top;
pos = (205,650);
}
);
layerId = "EC9F2154-F4A7-4F5F-94F7-5D2EB750EE8F";
shapes = (
{
closed = 1;
nodes = (
(277,-12,o),
(359,23,o),
(359,173,cs),
(359,650,l),
(283,650,l),
(283,173,ls),
(283,80,o),
(238,53,o),
(186,53,cs),
(135,53,o),
(90,80,o),
(90,168,c),
(90,197,l),
(15,197,l),
(15,168,l),
(15,23,o),
(96,-12,o),
(186,-12,cs)
);
}
);
width = 419;
}
);
metricRight = "=60";
unicode = 74;
},
{
glyphname = K;
lastChange = "2025-11-04 11:29:09 +0000";
layers = (
{
anchors = (
{
name = bottom;
pos = (297,0);
},
{
name = top;
pos = (297,650);
}
);
layerId = "EC9F2154-F4A7-4F5F-94F7-5D2EB750EE8F";
shapes = (
{
closed = 1;
nodes = (
(146,1,l),
(146,650,l),
(70,650,l),
(70,1,l)
);
},
{
closed = 1;
nodes = (
(507,0,l),
(260,423,l),
(210,362,l),
(423,0,l)
);
},
{
closed = 1;
nodes = (
(485,650,l),
(400,650,l),
(112,297,l),
(108,179,l)
);
}
);
width = 527;
}
);
metricLeft = "=H";
unicode = 75;
},
{
glyphname = L;
lastChange = "2025-11-04 11:29:09 +0000";
layers = (
{
anchors = (
{
name = bottom;
pos = (243,0);
},
{
name = center;
pos = (243,325);
},
{
name = top;
pos = (243,650);
},
{
name = topright;
pos = (473,650);
}
);
layerId = "EC9F2154-F4A7-4F5F-94F7-5D2EB750EE8F";
shapes = (
{
closed = 1;
nodes = (
(429,0,l),
(429,66,l),
(146,66,l),
(146,650,l),
(70,650,l),
(70,0,l)
);
}
);
width = 464;
}
);
metricLeft = "=H";
unicode = 76;
},
{
glyphname = M;
lastChange = "2025-11-04 11:29:09 +0000";
layers = (
{
anchors = (
{
name = bottom;
pos = (374,0);
},
{
name = top;
pos = (374,650);
}
);
layerId = "EC9F2154-F4A7-4F5F-94F7-5D2EB750EE8F";
shapes = (
{
closed = 1;
nodes = (
(146,1,l),
(146,542,l),
(126,525,l),
(309,130,l),
(381,130,l),
(564,525,l),
(544,542,l),
(544,1,l),
(620,1,l),
(620,650,l),
(543,650,l),
(332,201,l),
(358,201,l),
(147,650,l),
(70,650,l),
(70,1,l)
);
}
);
width = 690;
}
);
metricLeft = H;
metricRight = H;
unicode = 77;
},
{
glyphname = N;
lastChange = "2025-11-04 11:29:09 +0000";
layers = (
{
anchors = (
{
name = bottom;
pos = (336,0);
},
{
name = top;
pos = (336,650);
}
);
layerId = "EC9F2154-F4A7-4F5F-94F7-5D2EB750EE8F";
shapes = (
{
closed = 1;
nodes = (
(70,0,l),
(146,0,l),
(146,572,l),
(112,560,l),
(448,0,l),
(518,0,l),
(518,650,l),
(441,650,l),
(441,76,l),
(479,88,l),
(143,650,l),
(70,650,l)
);
}
);
width = 588;
}
);
metricLeft = H;
metricRight = "=|";
unicode = 78;
},
{
glyphname = O;
lastChange = "2025-11-04 11:29:09 +0000";
layers = (
{
layerId = "EC9F2154-F4A7-4F5F-94F7-5D2EB750EE8F";
shapes = (
{
closed = 1;
nodes = (
(477,237,l),
(477,92,o),
(386,52,o),
(306,53,cs),
(226,54,o),
(135,92,o),
(135,237,c),
(135,409,l),
(135,558,o),
(226,596,o),
(306,597,cs),
(386,598,o),
(477,558,o),
(477,409,c)
);
},
{
closed = 1;
nodes = (
(59,237,l),
(59,43,o),
(203,-12,o),
(306,-12,cs),
(410,-12,o),
(553,43,o),
(553,237,c),
(553,409,l),
(553,607,o),
(410,662,o),
(306,662,cs),
(203,662,o),
(59,607,o),
(59,409,c)
);
}
);
width = 612;
}
);
metricRight = "=|";
unicode = 79;
},
{
glyphname = P;
lastChange = "2025-11-04 11:29:09 +0000";
layers = (
{
layerId = "EC9F2154-F4A7-4F5F-94F7-5D2EB750EE8F";
shapes = (
{
closed = 1;
nodes = (
(146,0,l),
(146,650,l),
(70,650,l),
(70,0,l)
);
},
{
closed = 1;
nodes = (
(229,248,ls),
(330,248,o),
(428,291,o),
(428,426,c),
(428,472,l),
(428,607,o),
(330,650,o),
(229,650,cs),
(126,650,l),
(126,585,l),
(223,584,ls),
(285,584,o),
(351,569,o),
(351,468,c),
(351,430,l),
(351,328,o),
(286,315,o),
(223,314,cs),
(126,314,l),
(126,248,l)
);
}
);
width = 487;
}
);
metricLeft = "=H";
unicode = 80;
},
{
glyphname = Q;
lastChange = "2025-11-04 11:29:09 +0000";
layers = (
{
layerId = "EC9F2154-F4A7-4F5F-94F7-5D2EB750EE8F";
shapes = (
{
closed = 1;
nodes = (
(477,237,l),
(477,92,o),
(386,52,o),
(306,53,cs),
(226,54,o),
(135,92,o),
(135,237,c),
(135,409,l),
(135,558,o),
(226,596,o),
(306,597,cs),
(386,598,o),
(477,558,o),
(477,409,c)
);
},
{
closed = 1;
nodes = (
(59,237,l),
(59,43,o),
(203,-12,o),
(306,-12,cs),
(410,-12,o),
(553,43,o),
(553,237,c),
(553,409,l),
(553,607,o),
(410,662,o),
(306,662,cs),
(203,662,o),
(59,607,o),
(59,409,c)
);
},
{
closed = 1;
nodes = (
(393,35,l),
(458,-75,l),
(526,-34,l),
(460,75,l)
);
}
);
width = 612;
}
);
metricLeft = "=O";
metricRight = "=O";
unicode = 81;
},
{
glyphname = R;
lastChange = "2025-11-04 11:29:09 +0000";
layers = (
{
layerId = "EC9F2154-F4A7-4F5F-94F7-5D2EB750EE8F";
shapes = (
{
closed = 1;
nodes = (
(147,585,l),
(251,585,ls),
(324,585,o),
(370,558,o),
(370,468,cs),
(370,441,ls),
(370,351,o),
(329,324,o),
(251,324,cs),
(147,324,l)
);
},
{
closed = 1;
nodes = (
(147,0,l),
(147,259,l),
(249,259,ls),
(356,259,o),
(450,301,o),
(450,437,cs),
(450,472,ls),
(450,608,o),
(356,650,o),
(248,650,c),
(70,650,l),
(70,0,l)
);
},
{
closed = 1;
nodes = (
(474,0,l),
(340,294,l),
(262,294,l),
(391,0,l)
);
}
);
width = 538;
}
);
metricLeft = "=H";
unicode = 82;
},
{
glyphname = S;
lastChange = "2025-11-04 11:29:09 +0000";
layers = (
{
layerId = "EC9F2154-F4A7-4F5F-94F7-5D2EB750EE8F";
shapes = (
{
closed = 1;
nodes = (
(379,-12,o),
(455,42,o),
(455,159,cs),
(455,242,o),
(404,301,o),
(315,339,cs),
(293,349,o),
(267,359,o),
(240,372,cs),
(192,395,o),
(144,424,o),
(144,491,cs),
(144,556,o),
(193,599,o),
(262,599,cs),
(324,599,o),
(385,567,o),
(388,450,c),
(462,450,l),
(459,605,o),
(373,662,o),
(263,662,cs),
(162,662,o),
(71,603,o),
(71,488,cs),
(71,378,o),
(127,339,o),
(196,308,cs),
(223,296,o),
(244,288,o),
(272,277,cs),
(332,252,o),
(380,220,o),
(380,151,cs),
(380,94,o),
(342,56,o),
(272,56,cs),
(212,56,o),
(136,81,o),
(130,183,c),
(58,183,l),
(60,38,o),
(166,-12,o),
(272,-12,cs)
);
}
);
width = 519;
}
);
metricRight = "=|";
unicode = 83;
},
{
glyphname = T;
lastChange = "2025-11-04 11:29:09 +0000";
layers = (
{
anchors = (
{
name = bottom;
pos = (250,0);
},
{
name = center;
pos = (250,325);
},
{
name = top;
pos = (250,650);
}
);
layerId = "EC9F2154-F4A7-4F5F-94F7-5D2EB750EE8F";
shapes = (
{
closed = 1;
nodes = (
(16,650,l),
(16,584,l),
(207,584,l),
(207,2,l),
(283,2,l),
(283,584,l),
(474,584,l),
(474,650,l)
);
}
);
width = 490;
}
);
metricRight = "=|";
unicode = 84;
},
{
glyphname = U;
lastChange = "2025-11-04 11:29:09 +0000";
layers = (
{
layerId = "EC9F2154-F4A7-4F5F-94F7-5D2EB750EE8F";
shapes = (
{
closed = 1;
nodes = (
(400,-12,o),
(538,38,o),
(538,232,c),
(538,650,l),
(462,650,l),
(462,237,l),
(462,92,o),
(376,52,o),
(299,53,cs),
(222,54,o),
(136,92,o),
(136,237,c),
(136,650,l),
(60,650,l),
(60,232,l),
(60,38,o),
(199,-12,o),
(299,-12,cs)
);
}
);
width = 598;
}
);
metricLeft = "=H-10";
metricRight = "=|";
unicode = 85;
},
{
glyphname = V;
lastChange = "2025-11-04 11:29:09 +0000";
layers = (
{
anchors = (
{
name = bottom;
pos = (282,0);
},
{
name = top;
pos = (282,650);
}
);
layerId = "EC9F2154-F4A7-4F5F-94F7-5D2EB750EE8F";
shapes = (
{
closed = 1;
nodes = (
(309,0,l),
(530,650,l),
(453,650,l),
(259,64,l),
(289,64,l),
(94,650,l),
(15,650,l),
(236,0,l)
);
}
);
width = 545;
}
);
metricLeft = "=15";
metricRight = "=|";
unicode = 86;
},
{
glyphname = W;
lastChange = "2025-11-04 11:29:09 +0000";
layers = (
{
anchors = (
{
name = bottom;
pos = (432,0);
},
{
name = top;
pos = (426,650);
}
);
layerId = "EC9F2154-F4A7-4F5F-94F7-5D2EB750EE8F";
shapes = (
{
closed = 1;
nodes = (
(205,0,l),
(275,0,l),
(428,579,l),
(398,578,l),
(556,0,l),
(629,0,l),
(817,650,l),
(741,650,l),
(574,54,l),
(619,54,l),
(456,650,l),
(374,650,l),
(220,56,l),
(262,56,l),
(95,650,l),
(15,650,l)
);
}
);
width = 832;
}
);
metricLeft = "=V";
metricRight = "=|";
unicode = 87;
},
{
glyphname = X;
lastChange = "2025-11-04 11:29:09 +0000";
layers = (
{
layerId = "EC9F2154-F4A7-4F5F-94F7-5D2EB750EE8F";
shapes = (
{
closed = 1;
nodes = (
(503,1,l),
(110,650,l),
(24,650,l),
(417,1,l)
);
},
{
closed = 1;
nodes = (
(292,292,l),
(503,650,l),
(419,650,l),
(249,362,l)
);
},
{
closed = 1;
nodes = (
(239,362,l),
(26,1,l),
(110,1,l),
(282,292,l)
);
}
);
width = 526;
}
);
metricRight = "=|";
unicode = 88;
},
{
glyphname = Y;
lastChange = "2025-11-04 11:29:09 +0000";
layers = (
{
anchors = (
{
name = bottom;
pos = (266,0);
},
{
name = top;
pos = (250,650);
},
{
name = topleft;
pos = (18,650);
}
);
layerId = "EC9F2154-F4A7-4F5F-94F7-5D2EB750EE8F";
shapes = (
{
closed = 1;
nodes = (
(207,263,l),
(207,0,l),
(283,0,l),
(283,263,l),
(480,650,l),
(405,650,l),
(225,294,l),
(265,294,l),
(89,650,l),
(10,650,l)
);
}
);
width = 490;
}
);
metricLeft = "=10";
metricRight = "=|";
unicode = 89;
},
{
glyphname = Z;
lastChange = "2025-11-04 11:29:09 +0000";
layers = (
{
anchors = (
{
name = bottom;
pos = (270,0);
},
{
name = center;
pos = (270,325);
},
{
name = top;
pos = (270,650);
}
);
layerId = "EC9F2154-F4A7-4F5F-94F7-5D2EB750EE8F";
shapes = (
{
closed = 1;
nodes = (
(50,62,l),
(50,0,l),
(481,0,l),
(481,68,l),
(143,68,l),
(481,588,l),
(481,650,l),
(50,650,l),
(50,583,l),
(388,583,l)
);
}
);
width = 531;
}
);
metricLeft = "=H-20";
metricRight = "=|";
unicode = 90;
},
{
color = 3;
glyphname = a;
lastChange = "2025-11-04 11:29:09 +0000";
layers = (
{
anchors = (
{
name = bottom;
pos = (254,0);
},
{
name = ogonek;
pos = (442,10);
},
{
name = top;
pos = (256,450);
}
);
layerId = "EC9F2154-F4A7-4F5F-94F7-5D2EB750EE8F";
shapes = (
{
closed = 1;
nodes = (
(220,273,ls),
(96,273,o),
(54,203,o),
(54,130,cs),
(54,51,o),
(104,-12,o),
(217,-12,cs),
(288,-12,o),
(318,5,o),
(356,47,c),
(349,159,l),
(349,92,o),
(290,50,o),
(226,50,cs),
(171,50,o),
(125,74,o),
(125,132,cs),
(125,179,o),
(156,212,o),
(237,212,c),
(349,212,l),
(349,273,l)
);
},
{
closed = 1;
nodes = (
(424,0,l),
(425,312,ls),
(425,424,o),
(322,462,o),
(250,462,cs),
(189,462,o),
(84,430,o),
(78,323,c),
(149,323,l),
(155,384,o),
(208,398,o),
(250,398,cs),
(282,398,o),
(349,387,o),
(349,307,cs),
(349,56,l),
(356,46,l),
(363,0,l)
);
}
);
width = 498;
}
);
metricLeft = o;
metricRight = "=n";
unicode = 97;
},
{
color = 3;
glyphname = b;
lastChange = "2025-11-04 11:29:09 +0000";
layers = (
{
layerId = "EC9F2154-F4A7-4F5F-94F7-5D2EB750EE8F";
shapes = (
{
closed = 1;
nodes = (
(134,0,l),
(141,33,l),
(148,43,l),
(148,664,l),
(73,664,l),
(73,0,l)
);
},
{
closed = 1;
nodes = (
(353,-12,o),
(455,36,o),
(456,189,cs),
(456,257,ls),
(455,413,o),
(352,462,o),
(275,462,cs),
(186,462,o),
(116,412,o),
(113,273,c),
(148,273,l),
(152,372,o),
(207,397,o),
(263,397,cs),
(313,397,o),
(382,372,o),
(383,256,cs),
(383,189,ls),
(382,79,o),
(313,53,o),
(263,53,cs),
(207,53,o),
(152,79,o),
(148,173,c),
(109,172,l),
(113,37,o),
(183,-12,o),
(271,-12,cs)
);
}
);
width = 510;
}
);
metricLeft = n;
metricRight = o;
unicode = 98;
},
{
color = 3;
glyphname = c;
lastChange = "2025-11-04 11:29:09 +0000";
layers = (
{
layerId = "EC9F2154-F4A7-4F5F-94F7-5D2EB750EE8F";
shapes = (
{
closed = 1;
nodes = (
(335,-12,o),
(431,37,o),
(434,154,c),
(361,154,l),
(358,78,o),
(300,53,o),
(249,53,cs),
(196,53,o),
(129,78,o),
(127,189,cs),
(127,256,ls),
(129,371,o),
(196,397,o),
(249,397,cs),
(300,397,o),
(358,370,o),
(361,291,c),
(434,291,l),
(431,411,o),
(330,462,o),
(249,462,cs),
(161,462,o),
(56,414,o),
(54,257,cs),
(54,189,ls),
(56,36,o),
(161,-12,o),
(249,-12,cs)
);
}
);
width = 489;
}
);
metricLeft = "=o";
metricRight = "=|";
unicode = 99;
},
{
color = 3;
glyphname = d;
lastChange = "2025-11-04 11:29:09 +0000";
layers = (
{
layerId = "EC9F2154-F4A7-4F5F-94F7-5D2EB750EE8F";
shapes = (
{
closed = 1;
nodes = (
(437,0,l),
(437,664,l),
(362,664,l),
(362,183,l),
(362,93,l),
(362,30,l),
(369,27,l),
(376,0,l)
);
},
{
closed = 1;
nodes = (
(394,412,o),
(330,462,o),
(241,462,cs),
(163,462,o),
(55,413,o),
(54,257,cs),
(54,189,ls),
(55,36,o),
(157,-12,o),
(239,-12,cs),
(328,-12,o),
(398,38,o),
(401,172,c),
(362,173,l),
(359,81,o),
(303,53,o),
(247,53,cs),
(198,53,o),
(128,79,o),
(127,189,cs),
(127,256,ls),
(128,372,o),
(198,397,o),
(247,397,cs),
(303,397,o),
(359,370,o),
(362,273,c),
(397,273,l)
);
}
);
width = 505;
}
);
metricLeft = o;
metricRight = n;
unicode = 100;
},
{
color = 3;
glyphname = e;
lastChange = "2025-11-04 11:29:09 +0000";
layers = (
{
layerId = "EC9F2154-F4A7-4F5F-94F7-5D2EB750EE8F";
shapes = (
{
closed = 1;
nodes = (
(440,199,l),
(440,250,l),
(404,258,l),
(74,258,l),
(74,199,l)
);
},
{
closed = 1;
nodes = (
(350,-12,o),
(435,46,o),
(438,143,c),
(365,143,l),
(360,78,o),
(305,53,o),
(255,53,cs),
(196,53,o),
(129,81,o),
(127,189,cs),
(127,256,ls),
(129,371,o),
(196,397,o),
(249,397,cs),
(311,397,o),
(366,362,o),
(367,250,c),
(440,250,l),
(438,406,o),
(339,462,o),
(249,462,cs),
(161,462,o),
(56,414,o),
(54,257,cs),
(54,189,ls),
(56,36,o),
(161,-12,o),
(255,-12,cs)
);
}
);
width = 494;
}
);
metricLeft = o;
metricRight = "=o";
unicode = 101;
},
{
glyphname = f;
lastChange = "2025-11-04 11:29:09 +0000";
layers = (
{
anchors = (
{
name = bottom;
pos = (164,0);
},
{
name = top;
pos = (164,689);
}
);
layerId = "EC9F2154-F4A7-4F5F-94F7-5D2EB750EE8F";
shapes = (
{
closed = 1;
nodes = (
(177,-4,l),
(177,387,l),
(294,387,l),
(294,450,l),
(177,450,l),
(177,564,ls),
(177,602,o),
(191,613,o),
(223,613,cs),
(294,613,l),
(294,680,l),
(206,680,ls),
(140,680,o),
(101,653,o),
(101,577,cs),
(101,450,l),
(35,450,l),
(35,387,l),
(101,387,l),
(101,-4,l)
);
}
);
width = 316;
}
);
unicode = 102;
},
{
glyphname = g;
lastChange = "2025-11-04 11:29:09 +0000";
layers = (
{
layerId = "EC9F2154-F4A7-4F5F-94F7-5D2EB750EE8F";
shapes = (
{
closed = 1;
nodes = (
(365,141,o),
(448,182,o),
(448,303,cs),
(448,420,o),
(361,466,o),
(272,466,cs),
(184,466,o),
(97,417,o),
(97,303,cs),
(97,182,o),
(180,141,o),
(272,141,cs)
);
},
{
closed = 1;
nodes = (
(203,201,o),
(166,234,o),
(166,304,cs),
(166,363,o),
(203,406,o),
(272,406,cs),
(341,406,o),
(379,363,o),
(379,304,cs),
(379,234,o),
(341,201,o),
(272,201,cs)
);
},
{
closed = 1;
nodes = (
(318,4,l),
(318,58,l),
(230,58,ls),
(153,58,o),
(107,104,o),
(157,158,cs),
(192,194,l),
(154,237,l),
(99,180,ls),
(51,131,o),
(61,22,o),
(211,11,cs)
);
},
{
closed = 1;
nodes = (
(315,-200,ls),
(434,-200,o),
(475,-136,o),
(475,-71,cs),
(475,0,o),
(434,59,o),
(315,59,cs),
(212,59,ls),
(99,59,o),
(53,0,o),
(53,-71,cs),
(53,-136,o),
(94,-200,o),
(212,-200,cs)
);
},
{
closed = 1;
nodes = (
(153,-141,o),
(119,-121,o),
(119,-70,cs),
(119,-15,o),
(153,0,o),
(208,0,cs),
(319,0,ls),
(376,0,o),
(409,-22,o),
(409,-70,cs),
(409,-114,o),
(376,-141,o),
(319,-141,cs),
(208,-141,ls)
);
},
{
closed = 1;
nodes = (
(409,391,l),
(409,425,o),
(417,440,o),
(462,440,c),
(474,452,l),
(474,495,l),
(456,501,l),
(384,501,o),
(350,453,o),
(350,391,c)
);
}
);
width = 551;
}
);
metricLeft = "=n-20";
metricRight = "=n";
unicode = 103;
},
{
color = 3;
glyphname = h;
lastChange = "2025-11-04 11:29:09 +0000";
layers = (
{
layerId = "EC9F2154-F4A7-4F5F-94F7-5D2EB750EE8F";
shapes = (
{
closed = 1;
nodes = (
(148,0,l),
(148,664,l),
(73,664,l),
(73,0,l)
);
},
{
closed = 1;
nodes = (
(148,272,l),
(150,357,o),
(200,399,o),
(265,399,cs),
(322,399,o),
(377,362,o),
(377,270,cs),
(377,0,l),
(450,0,l),
(450,273,ls),
(450,414,o),
(363,464,o),
(272,464,cs),
(181,464,o),
(121,402,o),
(119,272,c)
);
}
);
width = 518;
}
);
metricLeft = n;
metricRight = n;
unicode = 104;
},
{
color = 3;
glyphname = i;
lastChange = "2025-11-04 11:29:09 +0000";
layers = (
{
anchors = (
{
name = bottom;
pos = (125,0);
}
);
layerId = "EC9F2154-F4A7-4F5F-94F7-5D2EB750EE8F";
shapes = (
{
closed = 1;
nodes = (
(224,-4,l),
(224,61,l),
(195,61,ls),
(165,61,o),
(147,72,o),
(147,113,c),
(148,450,l),
(73,450,l),
(72,118,l),
(72,29,o),
(122,-4,o),
(191,-4,cs)
);
},
{
closed = 1;
nodes = (
(142,543,o),
(159,562,o),
(159,594,cs),
(159,625,o),
(142,644,o),
(109,644,cs),
(77,644,o),
(59,625,o),
(59,594,cs),
(59,562,o),
(77,543,o),
(109,543,cs)
);
}
);
width = 238;
}
);
metricLeft = "=n-14";
unicode = 105;
},
{
color = 3;
glyphname = j;
lastChange = "2025-11-04 11:29:09 +0000";
layers = (
{
layerId = "EC9F2154-F4A7-4F5F-94F7-5D2EB750EE8F";
shapes = (
{
closed = 1;
nodes = (
(99,-226,o),
(138,-207,o),
(138,-108,c),
(137,442,l),
(62,442,l),
(63,-103,l),
(63,-144,o),
(47,-158,o),
(11,-158,cs),
(-33,-158,l),
(-33,-226,l),
(18,-226,ls)
);
},
{
closed = 1;
nodes = (
(132,543,o),
(150,562,o),
(150,594,cs),
(150,625,o),
(132,644,o),
(99,644,cs),
(67,644,o),
(49,625,o),
(49,594,cs),
(49,562,o),
(67,543,o),
(99,543,cs)
);
}
);
width = 209;
}
);
metricLeft = "=n-106";
metricRight = "=|i";
unicode = 106;
},
{
glyphname = k;
lastChange = "2025-11-04 11:29:09 +0000";
layers = (
{
anchors = (
{
name = bottom;
pos = (246,0);
},
{
name = top;
pos = (246,689);
}
);
layerId = "EC9F2154-F4A7-4F5F-94F7-5D2EB750EE8F";
shapes = (
{
closed = 1;
nodes = (
(73,0,l),
(148,0,l),
(148,680,l),
(73,680,l)
);
},
{
closed = 1;
nodes = (
(246,291,l),
(169,280,l),
(355,0,l),
(439,0,l)
);
},
{
closed = 1;
nodes = (
(94,176,l),
(137,178,l),
(409,450,l),
(316,450,l),
(89,217,l)
);
}
);
width = 490;
}
);
metricLeft = n;
unicode = 107;
},
{
color = 3;
glyphname = l;
lastChange = "2025-11-04 11:29:09 +0000";
layers = (
{
layerId = "EC9F2154-F4A7-4F5F-94F7-5D2EB750EE8F";
shapes = (
{
closed = 1;
nodes = (
(225,-4,l),
(225,61,l),
(196,61,ls),
(166,61,o),
(148,72,o),
(148,113,c),
(149,664,l),
(74,664,l),
(73,118,l),
(73,29,o),
(123,-4,o),
(192,-4,cs)
);
}
);
width = 243;
}
);
metricLeft = "=n";
unicode = 108;
},
{
glyphname = m;
lastChange = "2025-11-04 11:29:09 +0000";
layers = (
{
anchors = (
{
name = bottom;
pos = (326,0);
},
{
name = top;
pos = (326,450);
}
);
layerId = "EC9F2154-F4A7-4F5F-94F7-5D2EB750EE8F";
shapes = (
{
closed = 1;
nodes = (
(148,0,l),
(148,408,l),
(144,412,l),
(137,450,l),
(73,450,l),
(73,0,l)
);
},
{
closed = 1;
nodes = (
(430,0,l),
(430,290,ls),
(429,393,o),
(357,464,o),
(268,464,cs),
(173,464,o),
(115,402,o),
(113,272,c),
(148,272,l),
(150,357,o),
(198,399,o),
(260,399,cs),
(310,399,o),
(357,362,o),
(357,274,cs),
(357,0,l)
);
},
{
closed = 1;
nodes = (
(711,0,l),
(711,277,ls),
(711,414,o),
(624,464,o),
(544,464,cs),
(454,464,o),
(396,402,o),
(394,272,c),
(430,272,l),
(432,357,o),
(480,399,o),
(536,399,cs),
(586,399,o),
(638,362,o),
(638,274,cs),
(638,0,l)
);
}
);
width = 779;
}
);
metricLeft = "=n";
metricRight = "=n";
unicode = 109;
},
{
color = 3;
glyphname = n;
lastChange = "2025-11-04 11:29:09 +0000";
layers = (
{
anchors = (
{
name = bottom;
pos = (254,0);
},
{
name = top;
pos = (254,450);
}
);
layerId = "EC9F2154-F4A7-4F5F-94F7-5D2EB750EE8F";
shapes = (
{
closed = 1;
nodes = (
(148,0,l),
(148,414,l),
(141,422,l),
(134,450,l),
(73,450,l),
(73,0,l)
);
},
{
closed = 1;
nodes = (
(148,272,l),
(150,357,o),
(200,399,o),
(265,399,cs),
(322,399,o),
(377,362,o),
(377,270,cs),
(377,0,l),
(450,0,l),
(450,273,ls),
(450,414,o),
(363,464,o),
(272,464,cs),
(173,464,o),
(115,402,o),
(113,272,c)
);
}
);
width = 523;
}
);
metricRight = "=|";
unicode = 110;
},
{
color = 3;
glyphname = o;
lastChange = "2025-11-04 11:29:09 +0000";
layers = (
{
anchors = (
{
name = bottom;
pos = (256,0);
},
{
name = center;
pos = (256,225);
},
{
name = ogonek;
pos = (470,10);
},
{
name = top;
pos = (256,450);
},
{
name = topright;
pos = (503,450);
}
);
layerId = "EC9F2154-F4A7-4F5F-94F7-5D2EB750EE8F";
shapes = (
{
closed = 1;
nodes = (
(196,53,o),
(129,78,o),
(127,189,cs),
(127,256,ls),
(129,371,o),
(196,397,o),
(249,397,cs),
(300,397,o),
(370,369,o),
(371,256,cs),
(371,189,ls),
(370,80,o),
(300,53,o),
(249,53,cs)
);
},
{
closed = 1;
nodes = (
(335,-12,o),
(443,39,o),
(444,189,cs),
(444,257,ls),
(443,411,o),
(330,462,o),
(249,462,cs),
(161,462,o),
(56,414,o),
(54,257,cs),
(54,189,ls),
(56,36,o),
(161,-12,o),
(249,-12,cs)
);
}
);
width = 499;
}
);
metricRight = "=|";
unicode = 111;
},
{
color = 3;
glyphname = p;
lastChange = "2025-11-04 11:29:09 +0000";
layers = (
{
layerId = "EC9F2154-F4A7-4F5F-94F7-5D2EB750EE8F";
shapes = (
{
closed = 1;
nodes = (
(148,-200,l),
(148,414,l),
(141,419,l),
(134,450,l),
(73,450,l),
(73,-200,l)
);
},
{
closed = 1;
nodes = (
(116,38,o),
(186,-12,o),
(275,-12,cs),
(352,-12,o),
(455,37,o),
(456,193,cs),
(456,261,ls),
(455,414,o),
(353,462,o),
(271,462,cs),
(183,462,o),
(113,413,o),
(109,278,c),
(148,277,l),
(152,371,o),
(207,397,o),
(263,397,cs),
(313,397,o),
(382,371,o),
(383,261,cs),
(383,194,ls),
(382,78,o),
(313,53,o),
(263,53,cs),
(207,53,o),
(152,78,o),
(148,177,c),
(113,177,l)
);
}
);
width = 510;
}
);
metricLeft = "=n";
metricRight = o;
unicode = 112;
},
{
color = 3;
glyphname = q;
lastChange = "2025-11-04 11:29:09 +0000";
layers = (
{
anchors = (
{
name = bottom;
pos = (242,0);
},
{
name = top;
pos = (242,450);
}
);
layerId = "EC9F2154-F4A7-4F5F-94F7-5D2EB750EE8F";
shapes = (
{
closed = 1;
nodes = (
(437,-200,l),
(437,450,l),
(376,450,l),
(369,414,l),
(362,407,l),
(362,-200,l)
);
},
{
closed = 1;
nodes = (
(362,177,l),
(359,80,o),
(303,53,o),
(247,53,cs),
(198,53,o),
(128,78,o),
(127,194,cs),
(127,261,ls),
(128,371,o),
(198,397,o),
(247,397,cs),
(303,397,o),
(359,369,o),
(362,277,c),
(401,278,l),
(398,412,o),
(328,462,o),
(239,462,cs),
(157,462,o),
(55,414,o),
(54,261,cs),
(54,193,ls),
(55,37,o),
(158,-12,o),
(236,-12,cs),
(325,-12,o),
(394,38,o),
(397,177,c)
);
}
);
width = 510;
}
);
metricLeft = "=o";
metricRight = "=n";
unicode = 113;
},
{
color = 3;
glyphname = r;
lastChange = "2025-11-04 11:29:09 +0000";
layers = (
{
anchors = (
{
name = bottom;
pos = (179,0);
},
{
name = top;
pos = (179,450);
}
);
layerId = "EC9F2154-F4A7-4F5F-94F7-5D2EB750EE8F";
shapes = (
{
closed = 1;
nodes = (
(149,0,l),
(149,403,l),
(142,407,l),
(137,450,l),
(73,450,l),
(73,0,l)
);
},
{
closed = 1;
nodes = (
(148,242,l),
(148,358,o),
(194,381,o),
(265,381,c),
(292,381,l),
(292,450,l),
(265,450,l),
(154,450,o),
(100,373,o),
(99,243,c)
);
}
);
width = 324;
}
);
unicode = 114;
},
{
glyphname = s;
lastChange = "2025-11-04 11:29:09 +0000";
layers = (
{
anchors = (
{
name = bottom;
pos = (183,0);
},
{
name = top;
pos = (183,450);
}
);
layerId = "EC9F2154-F4A7-4F5F-94F7-5D2EB750EE8F";
shapes = (
{
closed = 1;
nodes = (
(297,-12,o),
(353,37,o),
(353,112,cs),
(353,196,o),
(288,229,o),
(217,258,cs),
(185,272,ls),
(149,286,o),
(110,303,o),
(110,343,cs),
(110,384,o),
(143,401,o),
(193,401,cs),
(245,401,o),
(280,377,o),
(280,323,c),
(351,323,l),
(351,435,o),
(262,462,o),
(193,462,cs),
(121,462,o),
(40,433,o),
(40,339,cs),
(40,264,o),
(97,229,o),
(151,208,cs),
(187,194,ls),
(229,178,o),
(279,159,o),
(279,110,cs),
(279,68,o),
(241,50,o),
(195,50,cs),
(138,50,o),
(101,76,o),
(99,143,c),
(28,143,l),
(29,43,o),
(90,-12,o),
(196,-12,cs)
);
}
);
width = 392;
}
);
unicode = 115;
},
{
color = 3;
glyphname = t;
lastChange = "2025-11-04 11:29:09 +0000";
layers = (
{
layerId = "EC9F2154-F4A7-4F5F-94F7-5D2EB750EE8F";
shapes = (
{
closed = 1;
nodes = (
(279,-4,l),
(279,61,l),
(222,61,ls),
(192,61,o),
(175,72,o),
(175,113,c),
(175,555,l),
(100,555,l),
(99,118,l),
(99,29,o),
(150,-4,o),
(219,-4,cs)
);
},
{
closed = 1;
nodes = (
(279,386,l),
(279,450,l),
(34,450,l),
(34,385,l)
);
}
);
width = 300;
}
);
metricRight = f;
unicode = 116;
},
{
color = 3;
glyphname = u;
lastChange = "2025-11-04 11:29:09 +0000";
layers = (
{
anchors = (
{
name = bottom;
pos = (266,203);
},
{
name = ogonek;
pos = (457,5);
},
{
name = top;
pos = (266,248);
},
{
name = topright;
pos = (488,445);
}
);
layerId = "EC9F2154-F4A7-4F5F-94F7-5D2EB750EE8F";
shapes = (
{
closed = 1;
nodes = (
(374,450,l),
(374,36,l),
(382,28,l),
(389,0,l),
(450,0,l),
(450,450,l)
);
},
{
closed = 1;
nodes = (
(374,179,l),
(372,94,o),
(323,53,o),
(258,53,cs),
(200,53,o),
(146,90,o),
(146,182,cs),
(146,450,l),
(73,450,l),
(73,178,ls),
(73,38,o),
(160,-12,o),
(250,-12,cs),
(350,-12,o),
(408,50,o),
(410,179,c)
);
}
);
width = 519;
}
);
metricLeft = "=|n";
metricRight = "=|n";
unicode = 117;
},
{
glyphname = v;
lastChange = "2025-11-04 11:29:09 +0000";
layers = (
{
anchors = (
{
name = bottom;
pos = (220,0);
},
{
name = top;
pos = (220,450);
}
);
layerId = "EC9F2154-F4A7-4F5F-94F7-5D2EB750EE8F";
shapes = (
{
closed = 1;
nodes = (
(183,1,l),
(249,1,l),
(415,450,l),
(341,450,l),
(199,53,l),
(233,53,l),
(95,450,l),
(16,450,l)
);
}
);
width = 430;
}
);
metricLeft = "=|";
metricRight = "=y";
unicode = 118;
},
{
glyphname = w;
lastChange = "2025-11-04 11:29:09 +0000";
layers = (
{
anchors = (
{
name = bottom;
pos = (337,0);
},
{
name = top;
pos = (337,450);
}
);
layerId = "EC9F2154-F4A7-4F5F-94F7-5D2EB750EE8F";
shapes = (
{
closed = 1;
nodes = (
(227,1,l),
(347,380,l),
(326,380,l),
(452,1,l),
(522,1,l),
(659,450,l),
(587,450,l),
(476,68,l),
(495,68,l),
(375,450,l),
(299,450,l),
(184,69,l),
(203,69,l),
(87,450,l),
(15,450,l),
(157,1,l)
);
}
);
width = 674;
}
);
metricLeft = "=V";
metricRight = "=|";
unicode = 119;
},
{
glyphname = x;
lastChange = "2025-11-04 11:29:09 +0000";
layers = (
{
anchors = (
{
name = bottom;
pos = (224,0);
},
{
name = top;
pos = (224,450);
}
);
layerId = "EC9F2154-F4A7-4F5F-94F7-5D2EB750EE8F";
shapes = (
{
closed = 1;
nodes = (
(429,1,l),
(108,450,l),
(20,450,l),
(340,1,l)
);
},
{
closed = 1;
nodes = (
(254,208,l),
(421,450,l),
(335,450,l),
(208,263,l)
);
},
{
closed = 1;
nodes = (
(103,1,l),
(249,208,l),
(203,263,l),
(18,1,l)
);
}
);
width = 446;
}
);
metricRight = "=|";
unicode = 120;
},
{
glyphname = y;
lastChange = "2025-11-04 11:29:09 +0000";
layers = (
{
anchors = (
{
name = bottom;
pos = (228,0);
},
{
name = top;
pos = (228,450);
}
);
layerId = "EC9F2154-F4A7-4F5F-94F7-5D2EB750EE8F";
shapes = (
{
closed = 1;
nodes = (
(190,21,l),
(189,-11,l),
(24,451,l),
(103,451,l),
(236,54,l),
(203,54,l),
(338,451,l),
(415,451,l),
(215,-104,ls),
(192,-167,o),
(156,-199,o),
(81,-199,cs),
(32,-199,o),
(49,-199,o),
(17,-199,c),
(17,-132,l),
(17,-134,o),
(57,-132,o),
(82,-132,cs),
(124,-132,o),
(145,-103,o),
(159,-64,cs)
);
}
);
width = 430;
}
);
unicode = 121;
},
{
glyphname = z;
lastChange = "2025-11-04 11:29:09 +0000";
layers = (
{
anchors = (
{
name = bottom;
pos = (235,0);
},
{
name = center;
pos = (235,225);
},
{
name = top;
pos = (235,450);
}
);
layerId = "EC9F2154-F4A7-4F5F-94F7-5D2EB750EE8F";
shapes = (
{
closed = 1;
nodes = (
(63,63,l),
(63,0,l),
(405,0,l),
(405,60,l),
(148,60,l),
(405,387,l),
(405,450,l),
(63,450,l),
(63,390,l),
(320,390,l)
);
}
);
width = 468;
}
);
metricLeft = "=n-10";
metricRight = "=|";
unicode = 122;
},
{
glyphname = zero;
lastChange = "2025-11-04 11:29:09 +0000";
layers = (
{
layerId = "EC9F2154-F4A7-4F5F-94F7-5D2EB750EE8F";
shapes = (
{
closed = 1;
nodes = (
(115,544,o),
(181,598,o),
(262,598,cs),
(332,598,o),
(398,544,o),
(398,325,cs),
(398,106,o),
(332,52,o),
(262,52,cs),
(181,52,o),
(115,106,o),
(115,325,cs)
);
},
{
closed = 1;
nodes = (
(36,58,o),
(145,-16,o),
(262,-16,cs),
(369,-16,o),
(477,58,o),
(477,325,cs),
(477,593,o),
(369,666,o),
(262,666,cs),
(145,666,o),
(36,593,o),
(36,325,cs)
);
}
);
width = 513;
}
);
unicode = 48;
},
{
glyphname = one;
lastChange = "2025-11-04 11:29:09 +0000";
layers = (
{
layerId = "EC9F2154-F4A7-4F5F-94F7-5D2EB750EE8F";
shapes = (
{
closed = 1;
nodes = (
(203,650,l),
(203,638,ls),
(203,578,o),
(166,565,o),
(112,565,cs),
(51,565,l),
(51,503,l),
(203,503,l),
(203,0,l),
(278,0,l),
(278,650,l)
);
}
);
width = 347;
}
);
unicode = 49;
},
{
glyphname = two;
lastChange = "2025-11-04 11:29:09 +0000";
layers = (
{
layerId = "EC9F2154-F4A7-4F5F-94F7-5D2EB750EE8F";
shapes = (
{
closed = 1;
nodes = (
(441,0,l),
(441,67,l),
(160,67,l),
(203,108,o),
(264,165,o),
(321,226,cs),
(373,281,o),
(440,353,o),
(440,455,cs),
(440,600,o),
(357,662,o),
(248,662,cs),
(136,662,o),
(54,600,o),
(54,450,c),
(128,450,l),
(128,554,o),
(184,595,o),
(248,595,cs),
(314,596,o),
(363,554,o),
(363,452,cs),
(363,382,o),
(311,321,o),
(262,269,cs),
(192,196,o),
(98,105,o),
(36,44,c),
(36,0,l)
);
}
);
width = 481;
}
);
unicode = 50;
},
{
glyphname = three;
lastChange = "2025-11-04 11:29:09 +0000";
layers = (
{
layerId = "EC9F2154-F4A7-4F5F-94F7-5D2EB750EE8F";
shapes = (
{
closed = 1;
nodes = (
(359,-14,o),
(441,74,o),
(441,194,cs),
(441,306,o),
(368,418,o),
(175,405,c),
(209,380,l),
(402,594,l),
(402,650,l),
(32,650,l),
(32,583,l),
(303,583,l),
(136,399,l),
(136,346,l),
(177,346,l),
(322,346,o),
(364,268,o),
(364,194,cs),
(364,116,o),
(324,52,o),
(215,53,cs),
(136,53,o),
(80,79,o),
(80,185,c),
(6,185,l),
(6,34,o),
(93,-14,o),
(215,-14,cs)
);
}
);
width = 472;
}
);
unicode = 51;
},
{
glyphname = four;
lastChange = "2025-11-04 11:29:09 +0000";
layers = (
{
layerId = "EC9F2154-F4A7-4F5F-94F7-5D2EB750EE8F";
shapes = (
{
closed = 1;
nodes = (
(315,650,l),
(315,0,l),
(389,0,l),
(389,650,l)
);
},
{
closed = 1;
nodes = (
(43,143,l),
(464,143,l),
(464,205,l),
(126,205,l),
(385,650,l),
(314,650,l),
(43,193,l)
);
}
);
width = 488;
}
);
unicode = 52;
},
{
glyphname = five;
lastChange = "2025-11-04 11:29:09 +0000";
layers = (
{
layerId = "EC9F2154-F4A7-4F5F-94F7-5D2EB750EE8F";
shapes = (
{
closed = 1;
nodes = (
(362,-14,o),
(439,65,o),
(439,177,cs),
(439,319,o),
(352,387,o),
(197,387,cs),
(121,387,l),
(136,587,l),
(405,587,l),
(405,650,l),
(71,650,l),
(47,316,l),
(73,317,o),
(114,319,o),
(173,319,cs),
(314,319,o),
(363,261,o),
(363,177,cs),
(362,110,o),
(332,52,o),
(224,53,cs),
(136,53,o),
(87,93,o),
(87,198,c),
(15,198,l),
(15,42,o),
(98,-14,o),
(224,-14,cs)
);
}
);
width = 484;
}
);
unicode = 53;
},
{
glyphname = six;
lastChange = "2025-11-04 11:29:09 +0000";
layers = (
{
layerId = "EC9F2154-F4A7-4F5F-94F7-5D2EB750EE8F";
shapes = (
{
closed = 1;
nodes = (
(387,96,o),
(338,51,o),
(246,51,cs),
(165,51,o),
(117,96,o),
(117,188,cs),
(117,279,o),
(152,337,o),
(250,337,cs),
(338,337,o),
(387,279,o),
(387,188,cs)
);
},
{
closed = 1;
nodes = (
(365,-11,o),
(461,48,o),
(461,186,cs),
(461,325,o),
(371,399,o),
(251,399,cs),
(196,399,o),
(147,382,o),
(110,344,c),
(114,541,o),
(154,596,o),
(254,596,cs),
(348,596,o),
(381,541,o),
(381,453,c),
(449,453,l),
(449,603,o),
(378,663,o),
(255,663,cs),
(126,663,o),
(38,588,o),
(35,303,cs),
(35,153,o),
(46,-11,o),
(247,-11,cs)
);
}
);
width = 504;
}
);
unicode = 54;
},
{
glyphname = seven;
lastChange = "2025-11-04 11:29:09 +0000";
layers = (
{
layerId = "EC9F2154-F4A7-4F5F-94F7-5D2EB750EE8F";
shapes = (
{
closed = 1;
nodes = (
(416,650,l),
(15,650,l),
(15,587,l),
(336,587,l),
(101,0,l),
(172,0,l),
(416,607,l)
);
}
);
width = 449;
}
);
unicode = 55;
},
{
glyphname = eight;
lastChange = "2025-11-04 11:29:09 +0000";
layers = (
{
layerId = "EC9F2154-F4A7-4F5F-94F7-5D2EB750EE8F";
shapes = (
{
closed = 1;
nodes = (
(65,45,o),
(152,-16,o),
(281,-16,cs),
(405,-16,o),
(495,45,o),
(495,184,cs),
(495,324,o),
(409,388,o),
(280,388,cs),
(152,388,o),
(65,324,o),
(65,184,cs)
);
},
{
closed = 1;
nodes = (
(142,276,o),
(179,335,o),
(281,335,cs),
(382,335,o),
(418,276,o),
(418,186,cs),
(418,97,o),
(366,48,o),
(281,48,cs),
(189,48,o),
(142,97,o),
(142,186,cs)
);
},
{
closed = 1;
nodes = (
(91,393,o),
(163,335,o),
(281,335,cs),
(399,335,o),
(470,393,o),
(470,495,cs),
(470,601,o),
(394,665,o),
(281,665,cs),
(167,665,o),
(91,601,o),
(91,495,cs)
);
},
{
closed = 1;
nodes = (
(168,552,o),
(196,601,o),
(281,601,cs),
(365,601,o),
(393,552,o),
(393,491,cs),
(393,431,o),
(359,388,o),
(281,388,cs),
(202,388,o),
(168,431,o),
(168,491,cs)
);
}
);
width = 560;
}
);
metricRight = "=|";
unicode = 56;
},
{
glyphname = nine;
lastChange = "2025-11-04 11:29:09 +0000";
layers = (
{
layerId = "EC9F2154-F4A7-4F5F-94F7-5D2EB750EE8F";
shapes = (
{
closed = 1;
nodes = (
(110,556,o),
(158,601,o),
(250,601,cs),
(331,601,o),
(379,556,o),
(379,465,cs),
(379,373,o),
(344,315,o),
(246,315,cs),
(158,315,o),
(110,373,o),
(110,465,cs)
);
},
{
closed = 1;
nodes = (
(131,663,o),
(35,604,o),
(35,466,cs),
(35,328,o),
(125,254,o),
(245,254,cs),
(300,254,o),
(349,270,o),
(386,308,c),
(382,111,o),
(343,56,o),
(242,56,cs),
(149,56,o),
(115,112,o),
(115,199,c),
(47,199,l),
(47,49,o),
(118,-11,o),
(241,-11,cs),
(371,-11,o),
(458,64,o),
(461,349,cs),
(461,500,o),
(451,663,o),
(249,663,cs)
);
}
);
width = 504;
}
);
unicode = 57;
},
{
glyphname = period;
lastChange = "2025-11-04 11:29:09 +0000";
layers = (
{
layerId = "EC9F2154-F4A7-4F5F-94F7-5D2EB750EE8F";
shapes = (
{
closed = 1;
nodes = (
(113,-12,o),
(124,0,o),
(124,37,cs),
(124,74,o),
(113,85,o),
(75,85,cs),
(37,85,o),
(26,74,o),
(26,37,cs),
(26,0,o),
(37,-12,o),
(75,-12,cs)
);
}
);
width = 150;
}
);
metricRight = "=|";
unicode = 46;
},
{
glyphname = comma;
lastChange = "2025-11-04 11:29:09 +0000";
layers = (
{
layerId = "EC9F2154-F4A7-4F5F-94F7-5D2EB750EE8F";
shapes = (
{
closed = 1;
nodes = (
(103,-59,o),
(122,-25,o),
(122,25,cs),
(122,76,o),
(110,88,o),
(72,88,cs),
(34,88,o),
(21,76,o),
(21,37,cs),
(21,-8,o),
(40,-12,o),
(60,-12,cs),
(65,-12,o),
(73,-11,o),
(80,-8,c),
(77,-31,o),
(65,-50,o),
(50,-66,c),
(74,-90,l)
);
}
);
width = 180;
}
);
unicode = 44;
},
{
glyphname = colon;
lastChange = "2025-11-04 11:29:09 +0000";
layers = (
{
layerId = "EC9F2154-F4A7-4F5F-94F7-5D2EB750EE8F";
shapes = (
{
closed = 1;
nodes = (
(113,-12,o),
(124,0,o),
(124,37,cs),
(124,74,o),
(113,85,o),
(75,85,cs),
(37,85,o),
(26,74,o),
(26,37,cs),
(26,0,o),
(37,-12,o),
(75,-12,cs)
);
},
{
closed = 1;
nodes = (
(113,318,o),
(124,330,o),
(124,368,cs),
(124,404,o),
(113,415,o),
(75,415,cs),
(37,415,o),
(26,404,o),
(26,368,cs),
(26,330,o),
(37,318,o),
(75,318,cs)
);
}
);
width = 150;
}
);
metricRight = "=|";
unicode = 58;
},
{
glyphname = semicolon;
lastChange = "2025-11-04 11:29:09 +0000";
layers = (
{
layerId = "EC9F2154-F4A7-4F5F-94F7-5D2EB750EE8F";
shapes = (
{
closed = 1;
nodes = (
(113,318,o),
(124,330,o),
(124,368,cs),
(124,404,o),
(113,415,o),
(75,415,cs),
(37,415,o),
(26,404,o),
(26,368,cs),
(26,330,o),
(37,318,o),
(75,318,cs)
);
},
{
closed = 1;
nodes = (
(103,-59,o),
(122,-25,o),
(122,25,cs),
(122,76,o),
(110,88,o),
(72,88,cs),
(34,88,o),
(21,76,o),
(21,37,cs),
(21,-8,o),
(40,-12,o),
(60,-12,cs),
(65,-12,o),
(73,-11,o),
(80,-8,c),
(77,-31,o),
(65,-50,o),
(50,-66,c),
(74,-90,l)
);
}
);
width = 147;
}
);
metricRight = "=|";
unicode = 59;
},
{
glyphname = exclam;
lastChange = "2025-11-04 11:29:09 +0000";
layers = (
{
layerId = "EC9F2154-F4A7-4F5F-94F7-5D2EB750EE8F";
shapes = (
{
closed = 1;
nodes = (
(144,152,l),
(153,414,l),
(153,650,l),
(75,650,l),
(75,414,l),
(85,152,l)
);
},
{
closed = 1;
nodes = (
(150,-13,o),
(160,-2,o),
(160,32,cs),
(160,67,o),
(150,77,o),
(115,77,cs),
(80,77,o),
(70,67,o),
(70,32,cs),
(70,-2,o),
(80,-13,o),
(115,-13,cs)
);
}
);
width = 230;
}
);
metricLeft = "=H";
metricRight = "=|";
unicode = 33;
},
{
glyphname = exclamdown;
lastChange = "2025-11-04 11:29:09 +0000";
layers = (
{
layerId = "EC9F2154-F4A7-4F5F-94F7-5D2EB750EE8F";
shapes = (
{
closed = 1;
nodes = (
(86,298,l),
(77,36,l),
(77,-200,l),
(155,-200,l),
(155,36,l),
(145,298,l)
);
},
{
closed = 1;
nodes = (
(80,463,o),
(70,452,o),
(70,418,cs),
(70,384,o),
(80,373,o),
(115,373,cs),
(150,373,o),
(160,384,o),
(160,418,cs),
(160,452,o),
(150,463,o),
(115,463,cs)
);
}
);
width = 230;
}
);
metricLeft = "=H";
metricRight = "=H";
unicode = 161;
},
{
glyphname = question;
lastChange = "2025-11-04 11:29:09 +0000";
layers = (
{
layerId = "EC9F2154-F4A7-4F5F-94F7-5D2EB750EE8F";
shapes = (
{
closed = 1;
nodes = (
(226,-12,o),
(237,-2,o),
(237,35,cs),
(237,71,o),
(226,81,o),
(190,81,cs),
(154,81,o),
(143,71,o),
(143,35,cs),
(143,-2,o),
(154,-12,o),
(190,-12,cs)
);
},
{
closed = 1;
nodes = (
(225,144,l),
(225,178,ls),
(225,227,o),
(291,277,o),
(313,296,cs),
(341,320,o),
(405,365,o),
(405,462,cs),
(405,602,o),
(322,662,o),
(213,662,cs),
(101,662,o),
(19,602,o),
(19,450,c),
(93,450,l),
(93,553,o),
(142,597,o),
(213,598,cs),
(278,598,o),
(328,553,o),
(328,459,cs),
(328,405,o),
(273,355,o),
(250,334,cs),
(226,312,o),
(153,259,o),
(153,197,cs),
(153,144,l)
);
}
);
width = 424;
}
);
unicode = 63;
},
{
glyphname = questiondown;
lastChange = "2025-11-04 11:29:09 +0000";
layers = (
{
layerId = "EC9F2154-F4A7-4F5F-94F7-5D2EB750EE8F";
shapes = (
{
closed = 1;
nodes = (
(198,463,o),
(188,453,o),
(188,416,cs),
(188,380,o),
(198,369,o),
(234,369,cs),
(271,369,o),
(281,380,o),
(281,416,cs),
(281,453,o),
(271,463,o),
(234,463,cs)
);
},
{
closed = 1;
nodes = (
(200,307,l),
(200,273,ls),
(200,224,o),
(131,173,o),
(112,155,cs),
(84,129,o),
(19,74,o),
(19,-11,cs),
(19,-151,o),
(103,-211,o),
(212,-211,cs),
(324,-211,o),
(405,-151,o),
(405,1,c),
(331,1,l),
(331,-108,o),
(277,-146,o),
(212,-147,cs),
(145,-148,o),
(97,-108,o),
(97,-9,cs),
(97,45,o),
(151,95,o),
(174,116,cs),
(198,138,o),
(272,191,o),
(272,254,cs),
(272,307,l)
);
}
);
width = 424;
}
);
unicode = 191;
},
{
glyphname = periodcentered;
lastChange = "2025-11-04 11:29:09 +0000";
layers = (
{
layerId = "EC9F2154-F4A7-4F5F-94F7-5D2EB750EE8F";
shapes = (
{
closed = 1;
nodes = (
(113,286,o),
(124,297,o),
(124,335,cs),
(124,371,o),
(113,383,o),
(75,383,cs),
(37,383,o),
(26,371,o),
(26,335,cs),
(26,297,o),
(37,286,o),
(75,286,cs)
);
}
);
width = 150;
}
);
metricRight = "=|";
unicode = 183;
},
{
glyphname = bullet;
lastChange = "2025-11-04 11:29:09 +0000";
layers = (
{
layerId = "EC9F2154-F4A7-4F5F-94F7-5D2EB750EE8F";
shapes = (
{
closed = 1;
nodes = (
(207,231,o),
(234,261,o),
(234,325,cs),
(234,385,o),
(207,414,o),
(142,414,cs),
(77,414,o),
(50,385,o),
(50,325,cs),
(50,261,o),
(77,231,o),
(142,231,cs)
);
}
);
width = 284;
}
);
metricRight = "=|";
unicode = 8226;
},
{
glyphname = asterisk;
lastChange = "2025-11-04 11:29:09 +0000";
layers = (
{
layerId = "EC9F2154-F4A7-4F5F-94F7-5D2EB750EE8F";
shapes = (
{
closed = 1;
nodes = (
(201,650,l),
(142,650,l),
(153,535,l),
(46,581,l),
(28,525,l),
(141,500,l),
(64,412,l),
(111,378,l),
(171,477,l),
(230,377,l),
(278,411,l),
(202,498,l),
(314,524,l),
(297,580,l),
(191,534,l)
);
}
);
width = 342;
}
);
metricRight = "=|";
unicode = 42;
},
{
glyphname = numbersign;
lastChange = "2025-11-04 11:29:09 +0000";
layers = (
{
layerId = "EC9F2154-F4A7-4F5F-94F7-5D2EB750EE8F";
shapes = (
{
closed = 1;
nodes = (
(80,0,l),
(146,0,l),
(264,650,l),
(198,650,l)
);
},
{
closed = 1;
nodes = (
(320,0,l),
(386,0,l),
(504,650,l),
(438,650,l)
);
},
{
closed = 1;
nodes = (
(70,421,l),
(547,421,l),
(547,479,l),
(70,479,l)
);
},
{
closed = 1;
nodes = (
(40,191,l),
(517,191,l),
(517,248,l),
(40,248,l)
);
}
);
width = 587;
}
);
metricLeft = "=40";
metricRight = "=|";
unicode = 35;
},
{
glyphname = slash;
lastChange = "2025-11-04 11:29:09 +0000";
layers = (
{
layerId = "EC9F2154-F4A7-4F5F-94F7-5D2EB750EE8F";
shapes = (
{
closed = 1;
nodes = (
(20,-14,l),
(80,-14,l),
(338,689,l),
(278,689,l)
);
}
);
width = 358;
}
);
metricRight = "=|";
unicode = 47;
},
{
glyphname = backslash;
lastChange = "2025-11-04 11:29:09 +0000";
layers = (
{
layerId = "EC9F2154-F4A7-4F5F-94F7-5D2EB750EE8F";
shapes = (
{
closed = 1;
nodes = (
(20,689,l),
(278,-14,l),
(338,-14,l),
(80,689,l)
);
}
);
width = 358;
}
);
metricRight = "=|";
unicode = 92;
},
{
glyphname = hyphen;
lastChange = "2025-11-04 11:29:09 +0000";
layers = (
{
layerId = "EC9F2154-F4A7-4F5F-94F7-5D2EB750EE8F";
shapes = (
{
closed = 1;
nodes = (
(28,256,l),
(339,256,l),
(339,317,l),
(28,317,l)
);
}
);
width = 366;
}
);
metricRight = "=|";
unicode = 45;
},
{
glyphname = endash;
lastChange = "2025-11-04 11:29:09 +0000";
layers = (
{
layerId = "EC9F2154-F4A7-4F5F-94F7-5D2EB750EE8F";
shapes = (
{
closed = 1;
nodes = (
(28,256,l),
(436,256,l),
(436,317,l),
(28,317,l)
);
}
);
width = 464;
}
);
metricRight = "=|";
unicode = 8211;
},
{
glyphname = emdash;
lastChange = "2025-11-04 11:29:09 +0000";
layers = (
{
layerId = "EC9F2154-F4A7-4F5F-94F7-5D2EB750EE8F";
shapes = (
{
closed = 1;
nodes = (
(28,256,l),
(718,256,l),
(718,317,l),
(28,317,l)
);
}
);
width = 746;
}
);
metricRight = "=|";
unicode = 8212;
},
{
glyphname = underscore;
lastChange = "2025-11-04 11:29:09 +0000";
layers = (
{
layerId = "EC9F2154-F4A7-4F5F-94F7-5D2EB750EE8F";
shapes = (
{
closed = 1;
nodes = (
(8,-200,l),
(416,-200,l),
(416,-139,l),
(8,-139,l)
);
}
);
width = 424;
}
);
metricRight = "=|";
unicode = 95;
},
{
glyphname = parenleft;
lastChange = "2025-11-04 11:29:09 +0000";
layers = (
{
layerId = "EC9F2154-F4A7-4F5F-94F7-5D2EB750EE8F";
shapes = (
{
closed = 1;
nodes = (
(70,68,o),
(159,-79,o),
(221,-178,c),
(282,-137,l),
(223,-49,o),
(145,86,o),
(145,275,cs),
(145,464,o),
(223,599,o),
(282,687,c),
(221,728,l),
(159,629,o),
(70,482,o),
(70,275,cs)
);
}
);
width = 334;
}
);
metricLeft = "=H";
unicode = 40;
},
{
glyphname = parenright;
lastChange = "2025-11-04 11:29:09 +0000";
layers = (
{
layerId = "EC9F2154-F4A7-4F5F-94F7-5D2EB750EE8F";
shapes = (
{
closed = 1;
nodes = (
(280,482,o),
(191,629,o),
(129,728,c),
(68,687,l),
(127,599,o),
(205,464,o),
(205,275,cs),
(205,86,o),
(127,-49,o),
(68,-137,c),
(129,-178,l),
(191,-79,o),
(280,68,o),
(280,275,cs)
);
}
);
width = 350;
}
);
metricRight = "=H";
unicode = 41;
},
{
glyphname = braceleft;
lastChange = "2025-11-04 11:29:09 +0000";
layers = (
{
layerId = "EC9F2154-F4A7-4F5F-94F7-5D2EB750EE8F";
shapes = (
{
closed = 1;
nodes = (
(330,-143,l),
(330,-82,l),
(283,-82,ls),
(252,-82,o),
(238,-71,o),
(238,-31,cs),
(238,200,ls),
(238,276,o),
(182,299,o),
(135,299,cs),
(71,299,l),
(71,245,l),
(118,245,ls),
(150,245,o),
(164,230,o),
(164,190,cs),
(164,-41,ls),
(164,-117,o),
(201,-143,o),
(267,-143,cs)
);
},
{
closed = 1;
nodes = (
(201,706,o),
(164,679,o),
(164,603,cs),
(164,359,ls),
(164,319,o),
(150,305,o),
(118,305,cs),
(71,305,l),
(71,250,l),
(135,250,ls),
(182,250,o),
(238,273,o),
(238,349,cs),
(238,593,ls),
(238,633,o),
(252,644,o),
(283,644,cs),
(330,644,l),
(330,706,l),
(267,706,ls)
);
}
);
width = 483;
}
);
unicode = 123;
},
{
glyphname = braceright;
lastChange = "2025-11-04 11:29:09 +0000";
layers = (
{
layerId = "EC9F2154-F4A7-4F5F-94F7-5D2EB750EE8F";
shapes = (
{
closed = 1;
nodes = (
(206,-148,o),
(243,-121,o),
(243,-45,cs),
(243,190,ls),
(243,230,o),
(257,245,o),
(289,245,cs),
(336,245,l),
(336,299,l),
(272,299,ls),
(225,299,o),
(169,276,o),
(169,200,cs),
(169,-35,ls),
(169,-75,o),
(155,-86,o),
(124,-86,cs),
(77,-86,l),
(77,-148,l),
(140,-148,ls)
);
},
{
closed = 1;
nodes = (
(77,706,l),
(77,644,l),
(124,644,ls),
(155,644,o),
(169,633,o),
(169,593,cs),
(169,349,ls),
(169,273,o),
(225,250,o),
(272,250,cs),
(336,250,l),
(336,305,l),
(289,305,ls),
(257,305,o),
(243,319,o),
(243,359,cs),
(243,603,ls),
(243,679,o),
(206,706,o),
(140,706,cs)
);
}
);
width = 483;
}
);
unicode = 125;
},
{
glyphname = bracketleft;
lastChange = "2025-11-04 11:29:09 +0000";
layers = (
{
layerId = "EC9F2154-F4A7-4F5F-94F7-5D2EB750EE8F";
shapes = (
{
closed = 1;
nodes = (
(231,-148,l),
(231,-86,l),
(189,-86,ls),
(158,-86,o),
(144,-75,o),
(144,-35,cs),
(144,588,ls),
(144,628,o),
(158,639,o),
(189,639,cs),
(231,639,l),
(231,701,l),
(173,701,ls),
(107,701,o),
(70,674,o),
(70,598,cs),
(70,-45,ls),
(70,-121,o),
(107,-148,o),
(173,-148,cs)
);
}
);
width = 241;
}
);
metricLeft = "=H";
unicode = 91;
},
{
glyphname = bracketright;
lastChange = "2025-11-04 11:29:09 +0000";
layers = (
{
layerId = "EC9F2154-F4A7-4F5F-94F7-5D2EB750EE8F";
shapes = (
{
closed = 1;
nodes = (
(134,-148,o),
(171,-121,o),
(171,-45,cs),
(171,598,ls),
(171,674,o),
(134,701,o),
(68,701,cs),
(10,701,l),
(10,639,l),
(51,639,ls),
(83,639,o),
(97,628,o),
(97,588,cs),
(97,-35,ls),
(97,-75,o),
(83,-86,o),
(51,-86,cs),
(10,-86,l),
(10,-148,l),
(68,-148,ls)
);
}
);
width = 241;
}
);
metricRight = "=H";
unicode = 93;
},
{
glyphname = quotesinglbase;
lastChange = "2025-11-04 11:29:09 +0000";
layers = (
{
layerId = "EC9F2154-F4A7-4F5F-94F7-5D2EB750EE8F";
shapes = (
{
closed = 1;
nodes = (
(108,-56,o),
(126,-29,o),
(126,26,cs),
(126,77,o),
(115,89,o),
(76,89,cs),
(38,89,o),
(26,77,o),
(26,39,cs),
(26,-7,o),
(45,-11,o),
(64,-11,cs),
(70,-11,o),
(77,-9,o),
(82,-7,c),
(79,-31,o),
(69,-48,o),
(53,-67,c),
(80,-86,l)
);
}
);
width = 156;
}
);
unicode = 8218;
},
{
glyphname = quoteleft;
lastChange = "2025-11-04 11:29:09 +0000";
layers = (
{
layerId = "EC9F2154-F4A7-4F5F-94F7-5D2EB750EE8F";
shapes = (
{
closed = 1;
nodes = (
(108,519,o),
(121,530,o),
(121,569,cs),
(121,615,o),
(102,619,o),
(82,619,cs),
(77,619,o),
(69,618,o),
(62,615,c),
(65,638,o),
(77,656,o),
(92,672,c),
(68,697,l),
(38,664,o),
(20,632,o),
(20,582,cs),
(20,530,o),
(32,519,o),
(70,519,cs)
);
}
);
width = 138;
}
);
unicode = 8216;
},
{
glyphname = quoteright;
lastChange = "2025-11-04 11:29:09 +0000";
layers = (
{
layerId = "EC9F2154-F4A7-4F5F-94F7-5D2EB750EE8F";
shapes = (
{
closed = 1;
nodes = (
(103,552,o),
(121,585,o),
(121,635,cs),
(121,686,o),
(108,698,o),
(70,698,cs),
(32,698,o),
(20,686,o),
(20,647,cs),
(20,601,o),
(39,598,o),
(58,598,cs),
(64,598,o),
(71,599,o),
(78,602,c),
(76,580,o),
(65,561,o),
(49,544,c),
(73,519,l)
);
}
);
width = 135;
}
);
unicode = 8217;
},
{
glyphname = guillemetleft;
lastChange = "2025-11-04 11:29:09 +0000";
layers = (
{
layerId = "EC9F2154-F4A7-4F5F-94F7-5D2EB750EE8F";
shapes = (
{
closed = 1;
nodes = (
(123,374,l),
(40,226,l),
(123,77,l),
(190,77,l),
(110,224,l),
(189,374,l)
);
},
{
closed = 1;
nodes = (
(263,374,l),
(180,226,l),
(263,77,l),
(330,77,l),
(250,224,l),
(329,374,l)
);
}
);
width = 370;
}
);
unicode = 171;
},
{
glyphname = guillemetright;
lastChange = "2025-11-04 11:29:09 +0000";
layers = (
{
layerId = "EC9F2154-F4A7-4F5F-94F7-5D2EB750EE8F";
shapes = (
{
closed = 1;
nodes = (
(260,224,l),
(180,77,l),
(247,77,l),
(330,226,l),
(247,374,l),
(181,374,l)
);
},
{
closed = 1;
nodes = (
(120,224,l),
(40,77,l),
(107,77,l),
(190,226,l),
(107,374,l),
(41,374,l)
);
}
);
width = 370;
}
);
unicode = 187;
},
{
glyphname = guilsinglleft;
lastChange = "2025-11-04 11:29:09 +0000";
layers = (
{
layerId = "EC9F2154-F4A7-4F5F-94F7-5D2EB750EE8F";
shapes = (
{
closed = 1;
nodes = (
(123,374,l),
(40,226,l),
(123,77,l),
(190,77,l),
(110,224,l),
(189,374,l)
);
}
);
width = 230;
}
);
unicode = 8249;
},
{
glyphname = guilsinglright;
lastChange = "2025-11-04 11:29:09 +0000";
layers = (
{
layerId = "EC9F2154-F4A7-4F5F-94F7-5D2EB750EE8F";
shapes = (
{
closed = 1;
nodes = (
(120,224,l),
(40,77,l),
(107,77,l),
(190,226,l),
(107,374,l),
(41,374,l)
);
}
);
width = 230;
}
);
unicode = 8250;
},
{
glyphname = quotedbl;
lastChange = "2025-11-04 11:29:09 +0000";
layers = (
{
layerId = "EC9F2154-F4A7-4F5F-94F7-5D2EB750EE8F";
shapes = (
{
closed = 1;
nodes = (
(140,487,l),
(152,680,l),
(72,680,l),
(84,487,l)
);
},
{
closed = 1;
nodes = (
(270,487,l),
(282,680,l),
(203,680,l),
(215,487,l)
);
}
);
width = 354;
}
);
metricRight = "=|";
unicode = 34;
},
{
glyphname = quotesingle;
lastChange = "2025-11-04 11:29:09 +0000";
layers = (
{
layerId = "EC9F2154-F4A7-4F5F-94F7-5D2EB750EE8F";
shapes = (
{
closed = 1;
nodes = (
(140,487,l),
(152,680,l),
(72,680,l),
(84,487,l)
);
}
);
width = 224;
}
);
metricRight = "=|";
unicode = 39;
},
{
glyphname = at;
lastChange = "2025-11-04 11:29:09 +0000";
layers = (
{
layerId = "EC9F2154-F4A7-4F5F-94F7-5D2EB750EE8F";
shapes = (
{
closed = 1;
nodes = (
(603,98,o),
(569,73,o),
(540,73,cs),
(503,73,o),
(467,99,o),
(474,152,cs),
(512,450,l),
(464,450,l),
(455,420,l),
(429,452,o),
(397,459,o),
(364,459,cs),
(283,459,o),
(210,427,o),
(192,278,cs),
(175,136,o),
(230,100,o),
(319,100,cs),
(362,100,o),
(398,112,o),
(425,150,c),
(426,150,l),
(419,78,o),
(467,33,o),
(534,33,cs),
(582,33,o),
(650,70,o),
(679,145,cs),
(695,185,o),
(704,230,o),
(704,280,cs),
(704,486,o),
(579,616,o),
(368,616,cs),
(157,616,o),
(31,486,o),
(31,280,cs),
(31,73,o),
(157,-57,o),
(409,-57,c),
(409,-19,l),
(187,-19,o),
(76,99,o),
(76,280,cs),
(76,461,o),
(187,572,o),
(368,572,cs),
(549,572,o),
(659,456,o),
(659,280,cs),
(659,229,o),
(648,180,o),
(627,142,cs)
);
},
{
closed = 1;
nodes = (
(274,151,o),
(236,170,o),
(250,278,cs),
(265,394,o),
(306,411,o),
(360,411,cs),
(410,411,o),
(450,399,o),
(434,278,cs),
(421,178,o),
(377,151,o),
(328,151,cs)
);
}
);
width = 735;
}
);
metricRight = "=|";
unicode = 64;
},
{
glyphname = ampersand;
lastChange = "2025-11-04 11:29:09 +0000";
layers = (
{
layerId = "EC9F2154-F4A7-4F5F-94F7-5D2EB750EE8F";
shapes = (
{
closed = 1;
nodes = (
(429,-14,o),
(515,51,o),
(515,191,cs),
(515,326,l),
(550,326,l),
(550,391,l),
(281,391,ls),
(202,391,o),
(168,433,o),
(168,491,cs),
(168,552,o),
(196,601,o),
(281,601,cs),
(365,601,o),
(393,552,o),
(393,491,c),
(470,491,l),
(470,603,o),
(394,665,o),
(281,665,cs),
(167,665,o),
(91,601,o),
(91,495,cs),
(91,436,o),
(113,389,o),
(158,361,c),
(100,330,o),
(65,271,o),
(65,184,cs),
(65,48,o),
(152,-14,o),
(281,-14,cs)
);
},
{
closed = 1;
nodes = (
(189,51,o),
(142,99,o),
(142,186,cs),
(142,273,o),
(180,326,o),
(280,326,cs),
(438,326,l),
(438,191,ls),
(438,99,o),
(389,51,o),
(281,51,cs)
);
}
);
width = 600;
}
);
unicode = 38;
},
{
glyphname = copyright;
lastChange = "2025-11-04 11:29:09 +0000";
layers = (
{
layerId = "EC9F2154-F4A7-4F5F-94F7-5D2EB750EE8F";
shapes = (
{
closed = 1;
nodes = (
(554,-11,o),
(704,139,o),
(704,326,cs),
(704,512,o),
(554,662,o),
(368,662,cs),
(181,662,o),
(31,512,o),
(31,326,cs),
(31,139,o),
(181,-11,o),
(368,-11,cs)
);
},
{
closed = 1;
nodes = (
(209,41,o),
(83,167,o),
(83,326,cs),
(83,484,o),
(209,610,o),
(368,610,cs),
(526,610,o),
(652,484,o),
(652,326,cs),
(652,167,o),
(526,41,o),
(368,41,cs)
);
},
{
closed = 1;
nodes = (
(441,136,o),
(516,166,o),
(517,260,c),
(460,260,l),
(458,206,o),
(422,189,o),
(368,189,cs),
(311,189,o),
(268,230,o),
(268,325,cs),
(268,422,o),
(311,461,o),
(368,461,cs),
(422,461,o),
(458,439,o),
(460,390,c),
(517,390,l),
(516,479,o),
(441,515,o),
(368,515,cs),
(276,513,o),
(204,460,o),
(204,325,cs),
(204,191,o),
(276,136,o),
(368,136,cs)
);
}
);
width = 735;
}
);
metricRight = "=|";
unicode = 169;
},
{
glyphname = registered;
lastChange = "2025-11-04 11:29:09 +0000";
layers = (
{
layerId = "EC9F2154-F4A7-4F5F-94F7-5D2EB750EE8F";
shapes = (
{
closed = 1;
nodes = (
(339,266,o),
(427,354,o),
(427,464,cs),
(427,574,o),
(339,662,o),
(229,662,cs),
(119,662,o),
(31,574,o),
(31,464,cs),
(31,354,o),
(119,266,o),
(229,266,cs)
);
},
{
closed = 1;
nodes = (
(137,298,o),
(62,372,o),
(62,464,cs),
(62,556,o),
(137,631,o),
(229,631,cs),
(321,631,o),
(395,556,o),
(395,464,cs),
(395,372,o),
(321,298,o),
(229,298,cs)
);
},
{
closed = 1;
nodes = (
(196,380,l),
(196,454,l),
(232,454,l),
(267,380,l),
(298,380,l),
(262,457,l),
(282,462,o),
(296,477,o),
(296,508,cs),
(296,554,o),
(269,563,o),
(240,563,cs),
(168,563,l),
(168,380,l)
);
},
{
closed = 1;
nodes = (
(196,539,l),
(241,539,ls),
(256,539,o),
(267,533,o),
(267,508,cs),
(267,484,o),
(256,478,o),
(241,478,cs),
(196,478,l)
);
}
);
width = 458;
}
);
metricRight = "=|";
unicode = 174;
},
{
glyphname = trademark;
lastChange = "2025-11-04 11:29:09 +0000";
layers = (
{
layerId = "EC9F2154-F4A7-4F5F-94F7-5D2EB750EE8F";
shapes = (
{
closed = 1;
nodes = (
(160,339,l),
(160,605,l),
(246,605,l),
(246,650,l),
(21,650,l),
(21,605,l),
(108,605,l),
(108,339,l)
);
},
{
closed = 1;
nodes = (
(336,338,l),
(336,607,l),
(312,588,l),
(429,338,l),
(459,338,l),
(576,588,l),
(551,607,l),
(551,338,l),
(597,338,l),
(597,650,l),
(555,650,l),
(423,363,l),
(466,363,l),
(333,650,l),
(291,650,l),
(291,338,l)
);
}
);
width = 789;
}
);
unicode = 8482;
},
{
glyphname = second;
lastChange = "2025-11-04 11:29:09 +0000";
layers = (
{
layerId = "EC9F2154-F4A7-4F5F-94F7-5D2EB750EE8F";
shapes = (
{
closed = 1;
nodes = (
(149,460,l),
(211,680,l),
(122,680,l),
(84,460,l)
);
},
{
closed = 1;
nodes = (
(279,460,l),
(341,680,l),
(253,680,l),
(215,460,l)
);
}
);
width = 425;
}
);
metricRight = "=|";
unicode = 8243;
},
{
glyphname = bar;
lastChange = "2025-11-04 11:29:09 +0000";
layers = (
{
layerId = "EC9F2154-F4A7-4F5F-94F7-5D2EB750EE8F";
shapes = (
{
closed = 1;
nodes = (
(49,680,l),
(49,-119,l),
(110,-119,l),
(110,680,l)
);
}
);
width = 159;
}
);
metricRight = "=|";
unicode = 124;
},
{
glyphname = dollar;
lastChange = "2025-11-04 11:29:09 +0000";
layers = (
{
layerId = "EC9F2154-F4A7-4F5F-94F7-5D2EB750EE8F";
shapes = (
{
closed = 1;
nodes = (
(286,-82,l),
(286,732,l),
(238,732,l),
(238,-82,l)
);
},
{
ref = S;
}
);
width = 510;
}
);
metricLeft = "=S";
metricRight = "=S";
unicode = 36;
},
{
glyphname = euro;
lastChange = "2025-11-04 11:29:09 +0000";
layers = (
{
layerId = "EC9F2154-F4A7-4F5F-94F7-5D2EB750EE8F";
shapes = (
{
closed = 1;
nodes = (
(441,-11,o),
(559,57,o),
(559,202,c),
(486,202,l),
(486,105,o),
(420,52,o),
(332,52,cs),
(219,52,o),
(149,146,o),
(149,326,cs),
(149,505,o),
(219,599,o),
(332,599,cs),
(419,599,o),
(486,547,o),
(486,449,c),
(559,449,l),
(559,597,o),
(440,662,o),
(327,662,cs),
(185,662,o),
(76,565,o),
(76,326,cs),
(76,89,o),
(185,-11,o),
(327,-11,cs)
);
},
{
closed = 1;
nodes = (
(25,357,l),
(397,357,l),
(397,407,l),
(25,407,l)
);
},
{
closed = 1;
nodes = (
(25,246,l),
(397,246,l),
(397,296,l),
(25,296,l)
);
}
);
width = 630;
}
);
unicode = 8364;
},
{
glyphname = sterling;
lastChange = "2025-11-04 11:29:09 +0000";
layers = (
{
layerId = "EC9F2154-F4A7-4F5F-94F7-5D2EB750EE8F";
shapes = (
{
closed = 1;
nodes = (
(436,0,l),
(436,67,l),
(161,67,l),
(203,115,o),
(272,164,o),
(195,266,cs),
(158,322,o),
(130,382,o),
(130,452,cs),
(130,559,o),
(180,596,o),
(242,595,cs),
(302,595,o),
(357,559,o),
(357,450,c),
(431,450,l),
(431,605,o),
(350,662,o),
(242,662,cs),
(138,662,o),
(54,605,o),
(54,455,cs),
(54,353,o),
(98,270,o),
(131,227,cs),
(189,150,o),
(95,108,o),
(36,44,c),
(36,0,l)
);
},
{
closed = 1;
nodes = (
(22,296,l),
(382,296,l),
(382,356,l),
(22,356,l)
);
}
);
width = 465;
}
);
unicode = 163;
},
{
glyphname = plus;
lastChange = "2025-11-04 11:29:09 +0000";
layers = (
{
layerId = "EC9F2154-F4A7-4F5F-94F7-5D2EB750EE8F";
shapes = (
{
closed = 1;
nodes = (
(79,307,l),
(471,307,l),
(471,371,l),
(79,371,l)
);
},
{
closed = 1;
nodes = (
(243,535,l),
(243,143,l),
(306,143,l),
(306,535,l)
);
}
);
width = 549;
}
);
metricRight = "=|";
unicode = 43;
},
{
glyphname = minus;
lastChange = "2025-11-04 11:29:09 +0000";
layers = (
{
layerId = "EC9F2154-F4A7-4F5F-94F7-5D2EB750EE8F";
shapes = (
{
closed = 1;
nodes = (
(79,307,l),
(471,307,l),
(471,371,l),
(79,371,l)
);
}
);
width = 549;
}
);
metricRight = "=|";
unicode = 8722;
},
{
glyphname = multiply;
lastChange = "2025-11-04 11:29:09 +0000";
layers = (
{
layerId = "EC9F2154-F4A7-4F5F-94F7-5D2EB750EE8F";
shapes = (
{
closed = 1;
nodes = (
(435,222,l),
(158,500,l),
(114,456,l),
(391,179,l)
);
},
{
closed = 1;
nodes = (
(435,456,l),
(391,500,l),
(114,222,l),
(158,179,l)
);
}
);
width = 549;
}
);
metricRight = "=|";
unicode = 215;
},
{
glyphname = divide;
lastChange = "2025-11-04 11:29:09 +0000";
layers = (
{
layerId = "EC9F2154-F4A7-4F5F-94F7-5D2EB750EE8F";
shapes = (
{
closed = 1;
nodes = (
(471,307,l),
(471,371,l),
(79,371,l),
(79,307,l)
);
},
{
closed = 1;
nodes = (
(304,458,l),
(304,525,l),
(236,525,l),
(236,458,l)
);
},
{
closed = 1;
nodes = (
(304,153,l),
(304,220,l),
(236,220,l),
(236,153,l)
);
}
);
width = 549;
}
);
metricRight = "=|";
unicode = 247;
},
{
glyphname = equal;
lastChange = "2025-11-04 11:29:09 +0000";
layers = (
{
layerId = "EC9F2154-F4A7-4F5F-94F7-5D2EB750EE8F";
shapes = (
{
closed = 1;
nodes = (
(95,397,l),
(465,397,l),
(465,461,l),
(95,461,l)
);
},
{
closed = 1;
nodes = (
(95,217,l),
(465,217,l),
(465,281,l),
(95,281,l)
);
}
);
width = 560;
}
);
metricRight = "=|";
unicode = 61;
},
{
glyphname = greater;
lastChange = "2025-11-04 11:29:09 +0000";
layers = (
{
layerId = "EC9F2154-F4A7-4F5F-94F7-5D2EB750EE8F";
shapes = (
{
closed = 1;
nodes = (
(102,519,l),
(518,309,l),
(518,373,l),
(102,588,l)
);
},
{
closed = 1;
nodes = (
(102,102,l),
(518,309,l),
(518,373,l),
(102,172,l)
);
}
);
width = 548;
}
);
unicode = 62;
},
{
glyphname = less;
lastChange = "2025-11-04 11:29:09 +0000";
layers = (
{
layerId = "EC9F2154-F4A7-4F5F-94F7-5D2EB750EE8F";
shapes = (
{
closed = 1;
nodes = (
(30,377,l),
(30,314,l),
(447,523,l),
(447,593,l)
);
},
{
closed = 1;
nodes = (
(30,377,l),
(30,314,l),
(447,107,l),
(447,176,l)
);
}
);
width = 548;
}
);
unicode = 60;
},
{
glyphname = percent;
lastChange = "2025-11-04 11:29:09 +0000";
layers = (
{
layerId = "EC9F2154-F4A7-4F5F-94F7-5D2EB750EE8F";
shapes = (
{
closed = 1;
nodes = (
(26,2,l),
(105,2,l),
(559,650,l),
(481,650,l)
);
},
{
closed = 1;
nodes = (
(390,225,o),
(415,241,o),
(446,241,cs),
(473,241,o),
(498,225,o),
(498,142,cs),
(498,58,o),
(473,42,o),
(446,42,cs),
(415,42,o),
(390,58,o),
(390,142,cs)
);
},
{
closed = 1;
nodes = (
(95,580,o),
(119,597,o),
(149,597,cs),
(176,597,o),
(199,580,o),
(199,501,cs),
(199,421,o),
(176,404,o),
(149,404,cs),
(119,404,o),
(95,421,o),
(95,501,cs)
);
},
{
closed = 1;
nodes = (
(39,381,o),
(93,351,o),
(149,351,cs),
(201,351,o),
(255,381,o),
(255,501,cs),
(255,620,o),
(201,650,o),
(149,650,cs),
(93,650,o),
(39,620,o),
(39,501,cs)
);
},
{
closed = 1;
nodes = (
(336,22,o),
(390,-8,o),
(446,-8,cs),
(498,-8,o),
(552,22,o),
(552,142,cs),
(552,261,o),
(498,291,o),
(446,291,cs),
(390,291,o),
(336,261,o),
(336,142,cs)
);
}
);
width = 585;
}
);
metricRight = "=|";
unicode = 37;
},
{
glyphname = upArrow;
lastChange = "2025-11-04 11:29:09 +0000";
layers = (
{
layerId = "EC9F2154-F4A7-4F5F-94F7-5D2EB750EE8F";
shapes = (
{
closed = 1;
nodes = (
(285,454,l),
(238,470,l),
(238,-61,l),
(309,-61,l),
(309,470,l),
(263,454,l),
(498,272,l),
(498,354,l),
(274,527,l),
(50,354,l),
(50,272,l)
);
}
);
width = 548;
}
);
unicode = 8593;
},
{
glyphname = rightArrow;
lastChange = "2025-11-04 11:29:09 +0000";
layers = (
{
layerId = "EC9F2154-F4A7-4F5F-94F7-5D2EB750EE8F";
shapes = (
{
closed = 1;
nodes = (
(564,215,l),
(579,261,l),
(48,261,l),
(48,190,l),
(579,190,l),
(564,237,l),
(381,2,l),
(463,2,l),
(636,226,l),
(463,450,l),
(381,450,l)
);
}
);
width = 683;
}
);
unicode = 8594;
},
{
glyphname = downArrow;
lastChange = "2025-11-04 11:29:09 +0000";
layers = (
{
layerId = "EC9F2154-F4A7-4F5F-94F7-5D2EB750EE8F";
shapes = (
{
closed = 1;
nodes = (
(262,7,l),
(309,-8,l),
(309,523,l),
(238,523,l),
(238,-8,l),
(284,7,l),
(49,189,l),
(49,107,l),
(273,-66,l),
(497,107,l),
(497,189,l)
);
}
);
width = 548;
}
);
unicode = 8595;
},
{
glyphname = leftArrow;
lastChange = "2025-11-04 11:29:09 +0000";
layers = (
{
layerId = "EC9F2154-F4A7-4F5F-94F7-5D2EB750EE8F";
shapes = (
{
closed = 1;
nodes = (
(117,237,l),
(102,190,l),
(633,190,l),
(633,261,l),
(102,261,l),
(117,215,l),
(300,450,l),
(218,450,l),
(45,226,l),
(218,2,l),
(300,2,l)
);
}
);
width = 683;
}
);
unicode = 8592;
},
{
glyphname = dieresiscomb;
lastChange = "2025-11-04 11:29:09 +0000";
layers = (
{
anchors = (
{
name = _top;
pos = (146,450);
},
{
name = top;
pos = (146,657);
}
);
layerId = "EC9F2154-F4A7-4F5F-94F7-5D2EB750EE8F";
shapes = (
{
closed = 1;
nodes = (
(93,549,o),
(103,560,o),
(103,592,cs),
(103,622,o),
(93,632,o),
(61,632,cs),
(29,632,o),
(19,622,o),
(19,592,cs),
(19,560,o),
(29,549,o),
(61,549,cs)
);
},
{
closed = 1;
nodes = (
(264,549,o),
(273,559,o),
(273,592,cs),
(273,622,o),
(264,632,o),
(231,632,cs),
(198,632,o),
(189,622,o),
(189,592,cs),
(189,559,o),
(198,549,o),
(231,549,cs)
);
}
);
width = 300;
}
);
unicode = 776;
},
{
glyphname = dotaccentcomb;
lastChange = "2025-11-04 11:29:09 +0000";
layers = (
{
anchors = (
{
name = _top;
pos = (61,450);
},
{
name = top;
pos = (61,635);
}
);
layerId = "EC9F2154-F4A7-4F5F-94F7-5D2EB750EE8F";
shapes = (
{
closed = 1;
nodes = (
(96,546,o),
(105,557,o),
(105,592,cs),
(105,625,o),
(96,635,o),
(61,635,cs),
(26,635,o),
(17,625,o),
(17,592,cs),
(17,557,o),
(26,546,o),
(61,546,cs)
);
}
);
width = 300;
}
);
unicode = 775;
},
{
glyphname = gravecomb;
lastChange = "2025-11-04 11:29:09 +0000";
layers = (
{
anchors = (
{
name = _top;
pos = (169,450);
},
{
name = top;
pos = (169,650);
}
);
layerId = "EC9F2154-F4A7-4F5F-94F7-5D2EB750EE8F";
shapes = (
{
closed = 1;
nodes = (
(91,650,l),
(190,516,l),
(240,516,l),
(168,650,l)
);
}
);
width = 300;
}
);
unicode = 768;
},
{
glyphname = acutecomb;
lastChange = "2025-11-04 11:29:09 +0000";
layers = (
{
anchors = (
{
name = _top;
pos = (130,450);
},
{
name = top;
pos = (163,650);
}
);
layerId = "EC9F2154-F4A7-4F5F-94F7-5D2EB750EE8F";
shapes = (
{
closed = 1;
nodes = (
(97,516,l),
(147,516,l),
(246,650,l),
(169,650,l)
);
}
);
width = 300;
}
);
unicode = 769;
},
{
glyphname = hungarumlautcomb;
lastChange = "2025-11-04 11:29:09 +0000";
layers = (
{
anchors = (
{
name = _top;
pos = (163,450);
},
{
name = top;
pos = (163,645);
}
);
layerId = "EC9F2154-F4A7-4F5F-94F7-5D2EB750EE8F";
shapes = (
{
closed = 1;
nodes = (
(41,516,l),
(86,516,l),
(185,645,l),
(113,645,l)
);
},
{
closed = 1;
nodes = (
(158,516,l),
(203,516,l),
(302,645,l),
(230,645,l)
);
}
);
width = 300;
}
);
unicode = 779;
},
{
glyphname = circumflexcomb;
lastChange = "2025-11-04 11:29:09 +0000";
layers = (
{
anchors = (
{
name = _top;
pos = (140,450);
},
{
name = top;
pos = (140,645);
}
);
layerId = "EC9F2154-F4A7-4F5F-94F7-5D2EB750EE8F";
shapes = (
{
closed = 1;
nodes = (
(105,591,l),
(88,591,l),
(75,569,l),
(91,569,l)
);
},
{
closed = 1;
nodes = (
(204,569,l),
(191,591,l),
(173,591,l),
(188,569,l)
);
}
);
width = 300;
}
);
unicode = 770;
},
{
glyphname = caroncomb;
lastChange = "2025-11-04 11:29:09 +0000";
layers = (
{
anchors = (
{
name = _top;
pos = (140,450);
},
{
name = top;
pos = (140,645);
}
);
layerId = "EC9F2154-F4A7-4F5F-94F7-5D2EB750EE8F";
shapes = (
{
closed = 1;
nodes = (
(112,516,l),
(167,516,l),
(67,645,l),
(14,645,l)
);
},
{
closed = 1;
nodes = (
(112,516,l),
(167,516,l),
(265,645,l),
(212,645,l)
);
}
);
width = 300;
}
);
unicode = 780;
},
{
glyphname = ringcomb;
lastChange = "2025-11-04 11:29:09 +0000";
layers = (
{
anchors = (
{
name = _top;
pos = (107,450);
},
{
name = top;
pos = (106,667);
}
);
layerId = "EC9F2154-F4A7-4F5F-94F7-5D2EB750EE8F";
shapes = (
{
closed = 1;
nodes = (
(151,513,o),
(172,534,o),
(172,579,cs),
(172,624,o),
(151,645,o),
(106,645,cs),
(61,645,o),
(40,624,o),
(40,579,cs),
(40,534,o),
(61,513,o),
(106,513,cs)
);
},
{
closed = 1;
nodes = (
(82,550,o),
(77,555,o),
(77,579,cs),
(77,603,o),
(82,608,o),
(106,608,cs),
(130,608,o),
(135,603,o),
(135,579,cs),
(135,555,o),
(130,550,o),
(106,550,cs)
);
}
);
width = 300;
}
);
unicode = 778;
},
{
glyphname = tildecomb;
lastChange = "2025-11-04 11:29:09 +0000";
layers = (
{
anchors = (
{
name = _top;
pos = (151,450);
},
{
name = top;
}
);
layerId = "EC9F2154-F4A7-4F5F-94F7-5D2EB750EE8F";
shapes = (
{
closed = 1;
nodes = (
(79,538,l),
(82,563,o),
(93,573,o),
(110,573,cs),
(141,573,o),
(162,538,o),
(201,538,cs),
(246,538,o),
(277,573,o),
(277,629,c),
(232,629,l),
(229,604,o),
(217,593,o),
(200,593,cs),
(170,593,o),
(149,629,o),
(109,629,cs),
(65,629,o),
(33,594,o),
(33,538,c)
);
}
);
width = 300;
}
);
unicode = 771;
},
{
glyphname = cedillacomb;
lastChange = "2025-11-04 11:29:09 +0000";
layers = (
{
anchors = (
{
name = _bottom;
pos = (188,-2);
},
{
name = bottom;
pos = (106,-103);
}
);
layerId = "EC9F2154-F4A7-4F5F-94F7-5D2EB750EE8F";
shapes = (
{
closed = 1;
nodes = (
(277,-197,o),
(320,-176,o),
(320,-119,cs),
(320,-63,o),
(277,-41,o),
(238,-41,cs),
(223,-41,o),
(209,-44,o),
(194,-48,c),
(194,-75,l),
(210,-71,o),
(228,-70,o),
(236,-70,cs),
(258,-71,o),
(282,-85,o),
(282,-119,cs),
(282,-153,o),
(258,-168,o),
(236,-169,cs),
(228,-169,o),
(210,-168,o),
(194,-164,c),
(194,-193,l),
(209,-198,o),
(227,-198,o),
(238,-198,cs)
);
},
{
closed = 1;
nodes = (
(194,-48,l),
(234,-48,l),
(258,-10,l),
(218,-10,l)
);
}
);
width = 300;
}
);
unicode = 807;
},
{
glyphname = ogonek;
lastChange = "2025-11-04 11:29:09 +0000";
layers = (
{
layerId = "EC9F2154-F4A7-4F5F-94F7-5D2EB750EE8F";
shapes = (
{
closed = 1;
nodes = (
(-116,-121,o),
(-66,-151,o),
(-10,-151,c),
(-10,-99,l),
(-38,-99,o),
(-62,-82,o),
(-62,-53,cs),
(-62,-25,o),
(-38,0,o),
(-8,0,c),
(-14,21,l),
(-65,18,o),
(-116,-15,o),
(-116,-69,cs)
);
}
